G04*
G04 #@! TF.GenerationSoftware,Altium Limited,Altium Designer,26.9.1 (10)*
G04*
G04 Layer_Physical_Order=3*
G04 Layer_Color=32768*
G04 Board_Origin=100000000|62000000*
%FSLAX25Y25*%
%MOIN*%
G70*
G04*
G04 #@! TF.SameCoordinates,2AC94A03-050B-4880-B61B-1EA0B69C7744*
G04*
G04*
G04 #@! TF.FilePolarity,Negative*
G04*
G01*
G75*
%ADD51C,0.06800*%
%ADD74C,0.00010*%
G04:AMPARAMS|DCode=75|XSize=100mil|YSize=100mil|CornerRadius=0mil|HoleSize=0mil|Usage=FLASHONLY|Rotation=0.000|XOffset=0mil|YOffset=0mil|HoleType=Round|Shape=Relief|Width=20mil|Gap=10mil|Entries=4|*
%AMTHD75*
7,0,0,0.10000,0.08000,0.02000,45*
%
%ADD75THD75*%
%AMTHOVALD76*
21,1,0.04724,0.08362,0,0,360.0*
1,1,0.08362,-0.02362,0.00000*
1,1,0.08362,0.02362,0.00000*
21,0,0.04724,0.06362,0,0,360.0*
1,0,0.06362,-0.02362,0.00000*
1,0,0.06362,0.02362,0.00000*
4,0,4,-0.01655,-0.00707,-0.04612,-0.03664,-0.06026,-0.02249,-0.03069,0.00707,-0.01655,-0.00707,0.0*
4,0,4,0.03069,-0.00707,0.06026,0.02249,0.04612,0.03664,0.01655,0.00707,0.03069,-0.00707,0.0*
4,0,4,-0.03069,-0.00707,-0.06026,0.02249,-0.04612,0.03664,-0.01655,0.00707,-0.03069,-0.00707,0.0*
4,0,4,0.01655,-0.00707,0.04612,-0.03664,0.06026,-0.02249,0.03069,0.00707,0.01655,-0.00707,0.0*
%
%ADD76THOVALD76*%

%AMTHOVALD77*
21,1,0.03150,0.08362,0,0,360.0*
1,1,0.08362,-0.01575,0.00000*
1,1,0.08362,0.01575,0.00000*
21,0,0.03150,0.06362,0,0,360.0*
1,0,0.06362,-0.01575,0.00000*
1,0,0.06362,0.01575,0.00000*
4,0,4,-0.00868,-0.00707,-0.03824,-0.03664,-0.05238,-0.02249,-0.02282,0.00707,-0.00868,-0.00707,0.0*
4,0,4,0.02282,-0.00707,0.05238,0.02249,0.03824,0.03664,0.00868,0.00707,0.02282,-0.00707,0.0*
4,0,4,-0.02282,-0.00707,-0.05238,0.02249,-0.03824,0.03664,-0.00868,0.00707,-0.02282,-0.00707,0.0*
4,0,4,0.00868,-0.00707,0.03824,-0.03664,0.05238,-0.02249,0.02282,0.00707,0.00868,-0.00707,0.0*
%
%ADD77THOVALD77*%

%ADD78C,0.08000*%
%ADD79C,0.05200*%
D51*
X142500Y50000D02*
D03*
X35500Y45000D02*
D03*
Y50000D02*
D03*
Y55000D02*
D03*
X137500Y50000D02*
D03*
D74*
X0Y0D02*
Y100000D01*
X280000D01*
Y0D02*
Y100000D01*
X0Y0D02*
X280000D01*
D75*
X54500Y94500D02*
D03*
X274500D02*
D03*
X264500Y5500D02*
D03*
X44500D02*
D03*
D76*
X6000Y59984D02*
D03*
Y94000D02*
D03*
Y6000D02*
D03*
Y40016D02*
D03*
D77*
X21748Y59984D02*
D03*
Y94000D02*
D03*
Y6000D02*
D03*
Y40016D02*
D03*
D78*
X274500Y5500D02*
D03*
X184500D02*
D03*
X164500D02*
D03*
X154500D02*
D03*
X174500D02*
D03*
X54500D02*
D03*
X64500D02*
D03*
X74500D02*
D03*
X94500D02*
D03*
X104500D02*
D03*
X124500D02*
D03*
X134500D02*
D03*
X144500D02*
D03*
X114500D02*
D03*
X194500D02*
D03*
X204500D02*
D03*
X214500D02*
D03*
X224500D02*
D03*
X234500D02*
D03*
X244500D02*
D03*
X254500D02*
D03*
X84500D02*
D03*
X124500Y94500D02*
D03*
X134500D02*
D03*
X184500D02*
D03*
X164500D02*
D03*
X154500D02*
D03*
X174500D02*
D03*
X44500D02*
D03*
X74500D02*
D03*
X84500D02*
D03*
X94500D02*
D03*
X104500D02*
D03*
X144500D02*
D03*
X114500D02*
D03*
X194500D02*
D03*
X204500D02*
D03*
X214500D02*
D03*
X224500D02*
D03*
X244500D02*
D03*
X254500D02*
D03*
X64500D02*
D03*
X234500D02*
D03*
X264500D02*
D03*
D79*
X78541Y90000D02*
D03*
X242790Y28209D02*
D03*
X256102Y67631D02*
D03*
X259481Y71188D02*
D03*
X252810D02*
D03*
X249500Y67631D02*
D03*
X246113Y71188D02*
D03*
X242803Y67631D02*
D03*
X239410Y71188D02*
D03*
X236100Y67631D02*
D03*
X229403D02*
D03*
X232714Y71188D02*
D03*
X226013D02*
D03*
X84000Y84000D02*
D03*
X190200Y71400D02*
D03*
X193900Y74700D02*
D03*
X78200Y49000D02*
D03*
X258700Y88900D02*
D03*
X263276Y88924D02*
D03*
X95552Y83054D02*
D03*
X184800Y77100D02*
D03*
X169996Y81800D02*
D03*
X89800Y70000D02*
D03*
X249486Y28209D02*
D03*
X229390D02*
D03*
X236087D02*
D03*
X256187D02*
D03*
X63126Y47012D02*
D03*
X60700Y64803D02*
D03*
X160700Y37500D02*
D03*
X225984Y31666D02*
D03*
X179800Y58800D02*
D03*
X181300Y37300D02*
D03*
X192700Y33800D02*
D03*
X193900Y68200D02*
D03*
X232700Y31666D02*
D03*
X196700Y33800D02*
D03*
X259497Y31666D02*
D03*
X190200Y64700D02*
D03*
X200100Y29400D02*
D03*
X193900Y61300D02*
D03*
X252797Y31666D02*
D03*
X239397D02*
D03*
X204100Y29400D02*
D03*
X246100Y31666D02*
D03*
X184700Y37300D02*
D03*
X190114Y58086D02*
D03*
X194800Y49700D02*
D03*
X46900Y22700D02*
D03*
X194800Y46500D02*
D03*
X46900Y18400D02*
D03*
X36000Y77000D02*
D03*
X47500Y77600D02*
D03*
X32100Y77000D02*
D03*
X47500Y74350D02*
D03*
X175650Y58800D02*
D03*
X171500D02*
D03*
X80799Y27300D02*
D03*
X76599D02*
D03*
X211500Y44700D02*
D03*
Y51400D02*
D03*
X52500Y14700D02*
D03*
X57800D02*
D03*
M02*
