G04*
G04 #@! TF.GenerationSoftware,Altium Limited,Altium Designer,26.9.1 (10)*
G04*
G04 Layer_Color=16711935*
G04 Board_Origin=100000000|62000000*
%FSLAX25Y25*%
%MOIN*%
G70*
G04*
G04 #@! TF.SameCoordinates,2AC94A03-050B-4880-B61B-1EA0B69C7744*
G04*
G04*
G04 #@! TF.FilePolarity,Negative*
G04*
G01*
G75*
%ADD51C,0.06800*%
%ADD52R,0.06800X0.06800*%
G04:AMPARAMS|DCode=53|XSize=39.37mil|YSize=86.61mil|CornerRadius=19.68mil|HoleSize=0mil|Usage=FLASHONLY|Rotation=270.000|XOffset=0mil|YOffset=0mil|HoleType=Round|Shape=RoundedRectangle|*
%AMROUNDEDRECTD53*
21,1,0.03937,0.04724,0,0,270.0*
21,1,0.00000,0.08661,0,0,270.0*
1,1,0.03937,-0.02362,0.00000*
1,1,0.03937,-0.02362,0.00000*
1,1,0.03937,0.02362,0.00000*
1,1,0.03937,0.02362,0.00000*
%
%ADD53ROUNDEDRECTD53*%
G04:AMPARAMS|DCode=54|XSize=39.37mil|YSize=70.87mil|CornerRadius=19.68mil|HoleSize=0mil|Usage=FLASHONLY|Rotation=270.000|XOffset=0mil|YOffset=0mil|HoleType=Round|Shape=RoundedRectangle|*
%AMROUNDEDRECTD54*
21,1,0.03937,0.03150,0,0,270.0*
21,1,0.00000,0.07087,0,0,270.0*
1,1,0.03937,-0.01575,0.00000*
1,1,0.03937,-0.01575,0.00000*
1,1,0.03937,0.01575,0.00000*
1,1,0.03937,0.01575,0.00000*
%
%ADD54ROUNDEDRECTD54*%
%ADD55C,0.04400*%
%ADD56R,0.04400X0.04400*%
%ADD57R,0.04400X0.04400*%
D51*
X54500Y94500D02*
D03*
X264500Y5500D02*
D03*
X44500D02*
D03*
X184500D02*
D03*
X164500D02*
D03*
X154500D02*
D03*
X174500D02*
D03*
X54500D02*
D03*
X64500D02*
D03*
X74500D02*
D03*
X94500D02*
D03*
X104500D02*
D03*
X124500D02*
D03*
X134500D02*
D03*
X144500D02*
D03*
X114500D02*
D03*
X194500D02*
D03*
X204500D02*
D03*
X214500D02*
D03*
X224500D02*
D03*
X234500D02*
D03*
X244500D02*
D03*
X254500D02*
D03*
X84500D02*
D03*
X124500Y94500D02*
D03*
X134500D02*
D03*
X184500D02*
D03*
X164500D02*
D03*
X154500D02*
D03*
X174500D02*
D03*
X44500D02*
D03*
X74500D02*
D03*
X84500D02*
D03*
X94500D02*
D03*
X104500D02*
D03*
X144500D02*
D03*
X114500D02*
D03*
X194500D02*
D03*
X204500D02*
D03*
X214500D02*
D03*
X224500D02*
D03*
X244500D02*
D03*
X254500D02*
D03*
X64500D02*
D03*
X234500D02*
D03*
X264500D02*
D03*
D52*
X274500D02*
D03*
Y5500D02*
D03*
D53*
X6000Y59984D02*
D03*
Y94000D02*
D03*
Y6000D02*
D03*
Y40016D02*
D03*
D54*
X21748Y59984D02*
D03*
Y94000D02*
D03*
Y6000D02*
D03*
Y40016D02*
D03*
D55*
X142500Y50000D02*
D03*
X35500Y45000D02*
D03*
Y50000D02*
D03*
D56*
Y55000D02*
D03*
D57*
X137500Y50000D02*
D03*
M02*
