G04*
G04 #@! TF.GenerationSoftware,Altium Limited,Altium Designer,26.9.1 (10)*
G04*
G04 Layer_Physical_Order=1*
G04 Layer_Color=255*
G04 Board_Origin=100000000|62000000*
%FSLAX25Y25*%
%MOIN*%
G70*
G04*
G04 #@! TF.SameCoordinates,2AC94A03-050B-4880-B61B-1EA0B69C7744*
G04*
G04*
G04 #@! TF.FilePolarity,Positive*
G04*
G01*
G75*
%ADD11C,0.00600*%
G04:AMPARAMS|DCode=16|XSize=23.62mil|YSize=26.38mil|CornerRadius=2.95mil|HoleSize=0mil|Usage=FLASHONLY|Rotation=90.000|XOffset=0mil|YOffset=0mil|HoleType=Round|Shape=RoundedRectangle|*
%AMROUNDEDRECTD16*
21,1,0.02362,0.02047,0,0,90.0*
21,1,0.01772,0.02638,0,0,90.0*
1,1,0.00591,0.01024,0.00886*
1,1,0.00591,0.01024,-0.00886*
1,1,0.00591,-0.01024,-0.00886*
1,1,0.00591,-0.01024,0.00886*
%
%ADD16ROUNDEDRECTD16*%
%ADD17R,0.04528X0.02362*%
%ADD18R,0.02126X0.02362*%
%ADD19R,0.02362X0.02126*%
%ADD20R,0.06102X0.05118*%
G04:AMPARAMS|DCode=21|XSize=33.06mil|YSize=9.55mil|CornerRadius=4.77mil|HoleSize=0mil|Usage=FLASHONLY|Rotation=270.000|XOffset=0mil|YOffset=0mil|HoleType=Round|Shape=RoundedRectangle|*
%AMROUNDEDRECTD21*
21,1,0.03306,0.00000,0,0,270.0*
21,1,0.02351,0.00955,0,0,270.0*
1,1,0.00955,0.00000,-0.01176*
1,1,0.00955,0.00000,0.01176*
1,1,0.00955,0.00000,0.01176*
1,1,0.00955,0.00000,-0.01176*
%
%ADD21ROUNDEDRECTD21*%
G04:AMPARAMS|DCode=22|XSize=35.43mil|YSize=68.9mil|CornerRadius=1.95mil|HoleSize=0mil|Usage=FLASHONLY|Rotation=90.000|XOffset=0mil|YOffset=0mil|HoleType=Round|Shape=RoundedRectangle|*
%AMROUNDEDRECTD22*
21,1,0.03543,0.06500,0,0,90.0*
21,1,0.03154,0.06890,0,0,90.0*
1,1,0.00390,0.03250,0.01577*
1,1,0.00390,0.03250,-0.01577*
1,1,0.00390,-0.03250,-0.01577*
1,1,0.00390,-0.03250,0.01577*
%
%ADD22ROUNDEDRECTD22*%
G04:AMPARAMS|DCode=23|XSize=125.98mil|YSize=68.9mil|CornerRadius=2.07mil|HoleSize=0mil|Usage=FLASHONLY|Rotation=90.000|XOffset=0mil|YOffset=0mil|HoleType=Round|Shape=RoundedRectangle|*
%AMROUNDEDRECTD23*
21,1,0.12598,0.06476,0,0,90.0*
21,1,0.12185,0.06890,0,0,90.0*
1,1,0.00413,0.03238,0.06093*
1,1,0.00413,0.03238,-0.06093*
1,1,0.00413,-0.03238,-0.06093*
1,1,0.00413,-0.03238,0.06093*
%
%ADD23ROUNDEDRECTD23*%
G04:AMPARAMS|DCode=24|XSize=23.62mil|YSize=26.38mil|CornerRadius=2.95mil|HoleSize=0mil|Usage=FLASHONLY|Rotation=180.000|XOffset=0mil|YOffset=0mil|HoleType=Round|Shape=RoundedRectangle|*
%AMROUNDEDRECTD24*
21,1,0.02362,0.02047,0,0,180.0*
21,1,0.01772,0.02638,0,0,180.0*
1,1,0.00591,-0.00886,0.01024*
1,1,0.00591,0.00886,0.01024*
1,1,0.00591,0.00886,-0.01024*
1,1,0.00591,-0.00886,-0.01024*
%
%ADD24ROUNDEDRECTD24*%
%ADD25R,0.03150X0.03150*%
%ADD26R,0.04724X0.04724*%
%ADD27R,0.01575X0.03150*%
%ADD28R,0.03150X0.01575*%
%ADD29R,0.02756X0.02362*%
%ADD30R,0.02362X0.01378*%
%ADD31R,0.01378X0.02362*%
G04:AMPARAMS|DCode=32|XSize=9.55mil|YSize=33.06mil|CornerRadius=4.77mil|HoleSize=0mil|Usage=FLASHONLY|Rotation=270.000|XOffset=0mil|YOffset=0mil|HoleType=Round|Shape=RoundedRectangle|*
%AMROUNDEDRECTD32*
21,1,0.00955,0.02351,0,0,270.0*
21,1,0.00000,0.03306,0,0,270.0*
1,1,0.00955,-0.01176,0.00000*
1,1,0.00955,-0.01176,0.00000*
1,1,0.00955,0.01176,0.00000*
1,1,0.00955,0.01176,0.00000*
%
%ADD32ROUNDEDRECTD32*%
%ADD33R,0.00955X0.03306*%
%ADD34R,0.05343X0.02253*%
G04:AMPARAMS|DCode=35|XSize=53.43mil|YSize=22.53mil|CornerRadius=11.26mil|HoleSize=0mil|Usage=FLASHONLY|Rotation=0.000|XOffset=0mil|YOffset=0mil|HoleType=Round|Shape=RoundedRectangle|*
%AMROUNDEDRECTD35*
21,1,0.05343,0.00000,0,0,0.0*
21,1,0.03091,0.02253,0,0,0.0*
1,1,0.02253,0.01545,0.00000*
1,1,0.02253,-0.01545,0.00000*
1,1,0.02253,-0.01545,0.00000*
1,1,0.02253,0.01545,0.00000*
%
%ADD35ROUNDEDRECTD35*%
%ADD36R,0.04528X0.01181*%
%ADD40R,0.08071X0.08071*%
G04:AMPARAMS|DCode=53|XSize=39.37mil|YSize=86.61mil|CornerRadius=19.68mil|HoleSize=0mil|Usage=FLASHONLY|Rotation=270.000|XOffset=0mil|YOffset=0mil|HoleType=Round|Shape=RoundedRectangle|*
%AMROUNDEDRECTD53*
21,1,0.03937,0.04724,0,0,270.0*
21,1,0.00000,0.08661,0,0,270.0*
1,1,0.03937,-0.02362,0.00000*
1,1,0.03937,-0.02362,0.00000*
1,1,0.03937,0.02362,0.00000*
1,1,0.03937,0.02362,0.00000*
%
%ADD53ROUNDEDRECTD53*%
G04:AMPARAMS|DCode=54|XSize=39.37mil|YSize=70.87mil|CornerRadius=19.68mil|HoleSize=0mil|Usage=FLASHONLY|Rotation=270.000|XOffset=0mil|YOffset=0mil|HoleType=Round|Shape=RoundedRectangle|*
%AMROUNDEDRECTD54*
21,1,0.03937,0.03150,0,0,270.0*
21,1,0.00000,0.07087,0,0,270.0*
1,1,0.03937,-0.01575,0.00000*
1,1,0.03937,-0.01575,0.00000*
1,1,0.03937,0.01575,0.00000*
1,1,0.03937,0.01575,0.00000*
%
%ADD54ROUNDEDRECTD54*%
%ADD58R,0.01575X0.01575*%
%ADD59C,0.01500*%
%ADD60C,0.02000*%
%ADD61C,0.01200*%
%ADD62C,0.01001*%
%ADD63C,0.04000*%
%ADD64C,0.00603*%
%ADD65C,0.06400*%
%ADD66R,0.06400X0.06400*%
%ADD67C,0.04000*%
%ADD68R,0.04000X0.04000*%
%ADD69R,0.04000X0.04000*%
%ADD70C,0.02400*%
G36*
X264500Y89455D02*
Y88437D01*
X264045Y87965D01*
X264034Y84426D01*
X258338D01*
X257914Y84851D01*
X257917Y86732D01*
X257919D01*
Y87926D01*
X257923Y87930D01*
X257473Y88417D01*
Y89410D01*
X258199Y90135D01*
X263820D01*
X264500Y89455D01*
D02*
G37*
G36*
X88019Y85672D02*
Y79885D01*
X87592Y79464D01*
X85755Y79488D01*
X83510D01*
X82838Y80160D01*
X81468D01*
Y83711D01*
X83694Y85937D01*
X87754D01*
X88019Y85672D01*
D02*
G37*
G36*
X60731Y66479D02*
X61936Y65274D01*
X61936Y64335D01*
X61181Y63580D01*
X58087D01*
X56835Y62328D01*
Y62264D01*
X56819D01*
Y58138D01*
X57414D01*
X57898Y57654D01*
Y57112D01*
X57833Y56363D01*
X57823Y56359D01*
X57060D01*
X54850Y58569D01*
X54875Y58594D01*
Y67020D01*
X59744Y71889D01*
X60731D01*
X60731Y66479D01*
D02*
G37*
G36*
X38770Y63818D02*
X42990D01*
Y53651D01*
X42356Y53018D01*
X35533D01*
X35461Y53003D01*
X34589Y53005D01*
Y66187D01*
X36400Y66188D01*
X38770Y63818D01*
D02*
G37*
G36*
X118494Y59036D02*
X127994D01*
X130985Y56046D01*
Y22002D01*
X130039Y21029D01*
X120560D01*
X119558Y20027D01*
Y10998D01*
X118607Y10020D01*
X82973D01*
X81996Y10997D01*
Y24025D01*
X83004Y25033D01*
X84490D01*
X86487Y27030D01*
Y28034D01*
X84490Y30031D01*
X71998D01*
X70001Y28034D01*
Y24982D01*
X69006Y23987D01*
X60743Y23987D01*
X59009Y22254D01*
X50626Y22254D01*
X48515Y24536D01*
Y30497D01*
X50485Y32467D01*
Y34524D01*
X51626Y35665D01*
X55710Y35665D01*
X59091D01*
X60223Y34458D01*
X70001Y34458D01*
X70994Y35450D01*
Y40495D01*
X70001Y41488D01*
X69006Y41522D01*
Y43241D01*
X69771Y44006D01*
X75524D01*
X75535Y43996D01*
X84255Y43996D01*
X84666Y44407D01*
X84849Y44529D01*
X88834Y48513D01*
X95521D01*
X101468Y54548D01*
Y58539D01*
X102976Y60046D01*
X117484D01*
X118494Y59036D01*
D02*
G37*
G36*
X262000Y38000D02*
X236573D01*
Y62972D01*
X262000D01*
Y38000D01*
D02*
G37*
G36*
X54256Y40272D02*
X69234D01*
Y36086D01*
X60696D01*
X59954Y36746D01*
X52407D01*
X41151Y48002D01*
X35533D01*
Y51998D01*
X42530D01*
X54256Y40272D01*
D02*
G37*
G36*
X35533Y46983D02*
X39383D01*
X42995Y43371D01*
Y36137D01*
X42356Y35499D01*
X34539D01*
X34539Y46707D01*
X35093Y46994D01*
X35139Y47000D01*
X35446D01*
X35533Y46983D01*
D02*
G37*
G36*
X69510Y22700D02*
X70349Y21861D01*
Y13683D01*
X69803Y13137D01*
X50923D01*
X50268Y13792D01*
Y20496D01*
X50968Y21196D01*
X60377D01*
X61881Y22700D01*
X69510Y22700D01*
D02*
G37*
D11*
X78054Y90000D02*
X78541D01*
X75763Y88807D02*
X76861D01*
X74937Y87981D02*
X75763Y88807D01*
X76861D02*
X78054Y90000D01*
X259526Y22134D02*
Y31500D01*
X260900Y8900D02*
X268294Y16294D01*
X258900Y8900D02*
X260900D01*
X268294Y16294D02*
X270294D01*
X255000Y5000D02*
X258900Y8900D01*
X250900Y10900D02*
X259200D01*
X265077Y16777D01*
X266596Y18294D02*
X268934D01*
X265077Y16777D02*
X265079D01*
X266596Y18294D01*
X245000Y5000D02*
X250900Y10900D01*
X224401Y5599D02*
Y14100D01*
X214500Y5500D02*
Y5918D01*
X217200Y8618D01*
Y11901D01*
X215682Y13419D02*
X217200Y11901D01*
X215564Y13419D02*
X215682D01*
X215001Y13982D02*
X215564Y13419D01*
X215001Y13982D02*
Y14100D01*
X242790Y22176D02*
Y28209D01*
X226016Y71704D02*
Y77252D01*
X229362Y68334D02*
Y77252D01*
X232709Y72005D02*
Y77252D01*
X236055Y67656D02*
Y77252D01*
X239402Y70766D02*
Y77252D01*
X246094Y71595D02*
Y77252D01*
X249441Y68109D02*
Y77252D01*
X252787Y71269D02*
Y77252D01*
X259480Y71120D02*
Y77252D01*
X256134Y67687D02*
Y77252D01*
X226016Y22134D02*
Y31635D01*
X229390Y22162D02*
Y28209D01*
X232700Y22142D02*
Y31666D01*
X236055Y22134D02*
Y28177D01*
X239402Y22134D02*
Y31661D01*
X246100Y22139D02*
Y31666D01*
X249486Y22134D02*
Y28000D01*
X252787Y22134D02*
Y31657D01*
X256134Y22134D02*
Y28156D01*
X208001Y87499D02*
X210500Y85000D01*
X244000D02*
X254000Y95000D01*
X210500Y85000D02*
X244000D01*
X203085Y87499D02*
X208001D01*
X205910Y79590D02*
X206000Y79500D01*
X205910Y79590D02*
Y84791D01*
X205901Y84800D02*
X205910Y84791D01*
X179000Y89500D02*
X229500D01*
X235000Y95000D01*
X202499Y86913D02*
X203085Y87499D01*
X202499Y84800D02*
Y86913D01*
X254000Y95000D02*
X255000D01*
X205919Y79706D02*
X209706D01*
X212000Y82000D01*
X193606Y79706D02*
X202517D01*
X182421Y68520D02*
X193606Y79706D01*
X212000Y82000D02*
X252500D01*
X253500Y81000D01*
X175000Y81870D02*
Y85500D01*
X179000Y89500D01*
X84000Y84204D02*
X85233Y85437D01*
X87228D01*
X84000Y84000D02*
Y84204D01*
X197828Y69772D02*
X221882D01*
X190200Y71400D02*
X196200D01*
X197828Y69772D01*
X193900Y74700D02*
X197276D01*
X198867Y73109D02*
X221873D01*
X197276Y74700D02*
X198867Y73109D01*
X221873D02*
X221882Y73118D01*
X270294Y16294D02*
X272000Y18000D01*
Y20480D02*
X272866Y21346D01*
X272000Y18000D02*
Y20480D01*
X272866Y21346D02*
Y22134D01*
X90628Y76200D02*
X92728Y74100D01*
X98272D02*
X101100Y76928D01*
X92728Y74100D02*
X98272D01*
X174965Y81835D02*
X175000Y81870D01*
X170031Y81835D02*
X174965D01*
X169996Y81800D02*
X170031Y81835D01*
X175000Y78130D02*
X175162Y78292D01*
X178486Y81937D02*
X180708D01*
X177900Y81352D02*
X178486Y81937D01*
X175162Y78292D02*
X177314D01*
X177900Y78878D01*
Y81352D01*
X87739Y71682D02*
X89421Y70000D01*
X89800D01*
X81294Y73706D02*
X83318Y71682D01*
X87739D01*
X101100Y76928D02*
Y80899D01*
X109278D01*
X82828Y77828D02*
X84457Y76200D01*
X90628D01*
X269520Y18880D02*
Y22134D01*
X268934Y18294D02*
X269520Y18880D01*
X132974Y20564D02*
Y57326D01*
X124350Y16142D02*
X128552D01*
X132974Y20564D01*
X128552Y16142D02*
X155650D01*
X129400Y60900D02*
X132974Y57326D01*
X115942Y66500D02*
X116030Y66413D01*
X155650Y16142D02*
Y20650D01*
X157520Y22521D02*
X164900D01*
X155650Y20650D02*
X157520Y22521D01*
X164900D02*
Y27499D01*
X116030Y66413D02*
X119213D01*
X119799Y65827D01*
Y61901D02*
Y65827D01*
Y61901D02*
X120800Y60900D01*
X129400D01*
X164804Y27595D02*
X164900Y27499D01*
X162805Y27595D02*
X164804D01*
X160700Y29700D02*
Y37500D01*
Y29700D02*
X162805Y27595D01*
X219161Y53039D02*
X221882D01*
X217814Y54386D02*
X219161Y53039D01*
X188785Y54400D02*
X188799Y54386D01*
X217814D01*
X179814Y58785D02*
X184199Y54400D01*
X188785D01*
X218035Y36307D02*
X221882D01*
X185818Y40000D02*
X187400Y38418D01*
X183582Y40000D02*
X185818D01*
X182000Y38379D02*
Y38418D01*
X181300Y37679D02*
X182000Y38379D01*
X181300Y37300D02*
Y37679D01*
X182000Y38418D02*
X183582Y40000D01*
X216689Y34961D02*
X218035Y36307D01*
X187400Y31228D02*
X190361Y28268D01*
X187400Y31228D02*
Y38418D01*
X190361Y28268D02*
X195149D01*
X201842Y34961D01*
X216689D01*
X217772Y43000D02*
X221882D01*
X215079Y40307D02*
X217772Y43000D01*
X192700Y33800D02*
X199207Y40307D01*
X215079D01*
X221807Y66500D02*
X221882Y66425D01*
X195659Y68141D02*
X197300Y66500D01*
X193959Y68141D02*
X195659D01*
X193900Y68200D02*
X193959Y68141D01*
X197300Y66500D02*
X221807D01*
X218553Y39654D02*
X221882D01*
X217207Y38307D02*
X218553Y39654D01*
X201207Y38307D02*
X217207D01*
X196700Y33800D02*
X201207Y38307D01*
X195700Y64700D02*
X197321Y63079D01*
X190200Y64700D02*
X195700D01*
X197321Y63079D02*
X221882D01*
X203561Y32961D02*
X221882D01*
X200100Y29500D02*
X203561Y32961D01*
X195468Y59732D02*
X221882D01*
X193900Y61300D02*
X195468Y59732D01*
X261500Y81000D02*
X262796Y79704D01*
Y77283D02*
Y79704D01*
Y77283D02*
X262827Y77252D01*
X253500Y81000D02*
X261500D01*
X204314Y29614D02*
X221882D01*
X204100Y29400D02*
X204314Y29614D01*
X242774Y67700D02*
Y77250D01*
X189532Y26268D02*
X221882D01*
X184700Y31100D02*
Y37300D01*
Y31100D02*
X189532Y26268D01*
X192614Y58086D02*
X194314Y56386D01*
X221882D01*
X190114Y58086D02*
X192614D01*
X24012Y27929D02*
X31229D01*
X32100Y28800D01*
X38200D01*
X39200Y27800D01*
X41999D01*
X42100Y27901D01*
X24012Y16118D02*
X28433D01*
X31652Y12899D02*
X42100D01*
X30300Y14252D02*
X31652Y12899D01*
X28433Y16118D02*
X30300Y14252D01*
X78541Y78969D02*
X81663D01*
X82803Y77828D02*
X82828D01*
X81663Y78969D02*
X82000Y78631D01*
X82803Y77828D01*
X178464Y18099D02*
X180700D01*
X177878Y18685D02*
X178464Y18099D01*
X177878Y18685D02*
Y21284D01*
X175000Y21870D02*
X177292D01*
X177878Y21284D01*
X74937Y84541D02*
Y87981D01*
X175650Y56178D02*
Y58800D01*
Y56178D02*
X176800Y55028D01*
X67063Y68328D02*
Y69459D01*
X64300Y60241D02*
Y65565D01*
X67063Y68328D01*
X64280Y60221D02*
X64300Y60241D01*
X59020Y60221D02*
X64280D01*
X59000Y60201D02*
X59020Y60221D01*
X30206Y69352D02*
X35342D01*
X37292Y67402D02*
X40385D01*
X35342Y69352D02*
X37292Y67402D01*
X29813Y69352D02*
X30206D01*
X24012Y70102D02*
X29062D01*
X29813Y69352D01*
X40385Y67402D02*
X41982Y68999D01*
X42100D01*
X30206Y83936D02*
X33171Y86901D01*
X42100D01*
X28183Y81913D02*
X30206Y83936D01*
X24012Y81913D02*
X28183D01*
X176800Y35828D02*
Y55028D01*
Y35828D02*
X188361Y24268D01*
X174800Y35000D02*
Y54200D01*
X171500Y57500D02*
X174800Y54200D01*
X208904Y22268D02*
X211599Y19572D01*
Y14100D02*
Y19572D01*
X187532Y22268D02*
X208904D01*
X174800Y35000D02*
X187532Y22268D01*
X209732Y24268D02*
X217587Y16413D01*
X188361Y24268D02*
X209732D01*
X165700Y68520D02*
X182421D01*
X87228Y65725D02*
Y67914D01*
Y60588D02*
Y65725D01*
X165510Y68331D02*
X165700Y68520D01*
X162881Y68331D02*
X165510D01*
X160692Y66142D02*
X162881Y68331D01*
X155650Y66142D02*
X160692D01*
X124350D02*
X155650D01*
X119480Y80100D02*
X120100Y79480D01*
X115942Y80200D02*
X116042Y80100D01*
X119480D01*
X120100Y75700D02*
Y79480D01*
X124350Y66142D02*
Y71450D01*
X120100Y75700D02*
X124350Y71450D01*
X79672Y73063D02*
X80000Y72735D01*
X78541Y73063D02*
X79672D01*
X81500Y68500D02*
X86642D01*
X80000Y70000D02*
Y72735D01*
Y70000D02*
X81500Y68500D01*
X104000Y63000D02*
Y69400D01*
X108426Y70272D02*
X108458Y70240D01*
X104872Y70272D02*
X108426D01*
X104000Y69400D02*
X104872Y70272D01*
X103000Y62000D02*
X104000Y63000D01*
X101299Y62000D02*
X103000D01*
X101100Y62199D02*
X101299Y62000D01*
X80828Y77000D02*
X82000Y75828D01*
X83628Y74200D01*
X78541Y77000D02*
X80828D01*
X83628Y74200D02*
X89800D01*
X79979Y75032D02*
X81294Y73716D01*
Y73706D02*
Y73716D01*
X78541Y75032D02*
X79979D01*
X108417Y76500D02*
X108458Y76460D01*
X103500Y76500D02*
X108417D01*
X101100Y74100D02*
X103500Y76500D01*
X101100Y65601D02*
Y74100D01*
X89800Y74200D02*
X98399Y65601D01*
X101100D01*
X86642Y68500D02*
X87228Y67914D01*
X109225Y66725D02*
X110862D01*
X108458Y62760D02*
Y65958D01*
X109225Y66725D01*
X110862D02*
X112629Y68493D01*
Y77548D01*
X109278Y80899D02*
X112629Y77548D01*
X104199Y84301D02*
X104560Y83940D01*
X108458D01*
X101100Y84301D02*
X104199D01*
X78917Y67283D02*
X80200Y66000D01*
X74937Y67869D02*
Y69459D01*
Y67869D02*
X75523Y67283D01*
X78917D01*
X80200Y66000D02*
X81800Y64400D01*
Y58500D02*
X84800Y55500D01*
X81800Y58500D02*
Y64400D01*
X84800Y55500D02*
X87228D01*
X217587Y15002D02*
Y16413D01*
Y15002D02*
X218489Y14100D01*
X220999D01*
D16*
X165700Y65079D02*
D03*
X64300Y56800D02*
D03*
X57800Y34479D02*
D03*
Y23443D02*
D03*
X52454D02*
D03*
X164900Y19080D02*
D03*
X57800Y37920D02*
D03*
X164900Y22521D02*
D03*
X52454Y20002D02*
D03*
X57800D02*
D03*
X64300Y60241D02*
D03*
X165700Y68520D02*
D03*
D17*
X24012Y64394D02*
D03*
Y89591D02*
D03*
Y10409D02*
D03*
Y35606D02*
D03*
Y13559D02*
D03*
Y32457D02*
D03*
Y67543D02*
D03*
Y86441D02*
D03*
D18*
X90630Y60588D02*
D03*
Y55500D02*
D03*
X205901Y84800D02*
D03*
X202499D02*
D03*
X75000Y49900D02*
D03*
X90630Y85437D02*
D03*
X67600Y49900D02*
D03*
X90630Y65725D02*
D03*
X87228Y85437D02*
D03*
X202898Y44700D02*
D03*
X206300D02*
D03*
X202201Y51400D02*
D03*
X198799D02*
D03*
X215001Y14100D02*
D03*
X211599D02*
D03*
X87228Y65725D02*
D03*
Y55500D02*
D03*
X55501Y78500D02*
D03*
X52099D02*
D03*
X71002Y49900D02*
D03*
X202798Y51400D02*
D03*
X206200D02*
D03*
X202301Y44700D02*
D03*
X198899D02*
D03*
X220999Y14100D02*
D03*
X224401D02*
D03*
X205919Y79706D02*
D03*
X202517D02*
D03*
X87228Y60588D02*
D03*
X55501Y73500D02*
D03*
X52099D02*
D03*
X71598Y49900D02*
D03*
D19*
X42100Y16301D02*
D03*
Y72401D02*
D03*
Y83499D02*
D03*
Y24499D02*
D03*
X180700Y21501D02*
D03*
X164900Y30901D02*
D03*
X180708Y78536D02*
D03*
Y81937D02*
D03*
X59000Y56799D02*
D03*
X101100Y80899D02*
D03*
Y84301D02*
D03*
X164900Y27499D02*
D03*
X101100Y65601D02*
D03*
Y62199D02*
D03*
X42100Y27901D02*
D03*
Y86901D02*
D03*
Y68999D02*
D03*
X59000Y60201D02*
D03*
X42100Y12899D02*
D03*
X180700Y18099D02*
D03*
D20*
X155650Y33858D02*
D03*
X124350D02*
D03*
Y83858D02*
D03*
X155650D02*
D03*
X124350Y66142D02*
D03*
X155650D02*
D03*
X124350Y16142D02*
D03*
X155650D02*
D03*
D21*
X71000Y69459D02*
D03*
Y84541D02*
D03*
X74937Y69459D02*
D03*
X72969D02*
D03*
X69032D02*
D03*
X67063Y84541D02*
D03*
X69032D02*
D03*
X72969D02*
D03*
X67063Y69459D02*
D03*
D22*
X65697Y29000D02*
D03*
Y38055D02*
D03*
Y19945D02*
D03*
D23*
X90303Y29000D02*
D03*
D24*
X45221Y62500D02*
D03*
X74520Y55100D02*
D03*
Y60488D02*
D03*
X270792Y13475D02*
D03*
X275721Y85400D02*
D03*
X52179Y66600D02*
D03*
Y84542D02*
D03*
X45221Y37500D02*
D03*
X255259Y85400D02*
D03*
X266697Y85425D02*
D03*
X90750Y80237D02*
D03*
X274233Y13475D02*
D03*
X258700Y85400D02*
D03*
X272280D02*
D03*
X263256Y85425D02*
D03*
X41780Y37500D02*
D03*
X55620Y84542D02*
D03*
X41780Y62500D02*
D03*
X87309Y80237D02*
D03*
X55620Y66600D02*
D03*
X71079Y60488D02*
D03*
Y55100D02*
D03*
D25*
X221882Y22134D02*
D03*
X277000D02*
D03*
X221882Y77252D02*
D03*
X277000D02*
D03*
D26*
X242945Y49693D02*
D03*
Y43197D02*
D03*
X249441D02*
D03*
X255937D02*
D03*
X249441Y49693D02*
D03*
X255937D02*
D03*
X242945Y56189D02*
D03*
X249441D02*
D03*
D27*
X266173Y22134D02*
D03*
X262827D02*
D03*
X269520Y77252D02*
D03*
X272866D02*
D03*
X266173D02*
D03*
X256134D02*
D03*
X262827D02*
D03*
X259480D02*
D03*
X252787D02*
D03*
X249441D02*
D03*
X246094D02*
D03*
X242748D02*
D03*
X239402D02*
D03*
X236055D02*
D03*
X232709D02*
D03*
X229362D02*
D03*
X226016D02*
D03*
Y22134D02*
D03*
X229362D02*
D03*
X232709D02*
D03*
X236055D02*
D03*
X239402D02*
D03*
X242748D02*
D03*
X246094D02*
D03*
X249441D02*
D03*
X252787D02*
D03*
X256134D02*
D03*
X259480D02*
D03*
X269520D02*
D03*
X272866D02*
D03*
D28*
X277000Y26268D02*
D03*
Y39654D02*
D03*
Y29614D02*
D03*
Y36307D02*
D03*
Y32961D02*
D03*
Y43000D02*
D03*
Y49693D02*
D03*
Y46346D02*
D03*
Y53039D02*
D03*
Y59732D02*
D03*
Y56386D02*
D03*
Y63079D02*
D03*
Y69772D02*
D03*
Y66425D02*
D03*
Y73118D02*
D03*
X221882Y69772D02*
D03*
Y73118D02*
D03*
Y66425D02*
D03*
Y63079D02*
D03*
Y59732D02*
D03*
Y56386D02*
D03*
Y53039D02*
D03*
Y43000D02*
D03*
Y39654D02*
D03*
Y36307D02*
D03*
Y32961D02*
D03*
Y29614D02*
D03*
Y26268D02*
D03*
Y49693D02*
D03*
Y46346D02*
D03*
D29*
X175000Y18130D02*
D03*
Y81870D02*
D03*
Y78130D02*
D03*
Y21870D02*
D03*
D30*
X34000Y15941D02*
D03*
Y25159D02*
D03*
Y71541D02*
D03*
Y82459D02*
D03*
Y79900D02*
D03*
Y74100D02*
D03*
Y22600D02*
D03*
Y18500D02*
D03*
D31*
X32721Y38000D02*
D03*
Y62000D02*
D03*
X35280D02*
D03*
Y38000D02*
D03*
D32*
X78541Y80937D02*
D03*
X63459Y73063D02*
D03*
X78541Y78969D02*
D03*
Y77000D02*
D03*
Y75032D02*
D03*
Y73063D02*
D03*
X63459Y75032D02*
D03*
Y77000D02*
D03*
Y78969D02*
D03*
Y80937D02*
D03*
D33*
X74937Y84541D02*
D03*
D34*
X108458Y83940D02*
D03*
Y70240D02*
D03*
D35*
Y76460D02*
D03*
X115942Y80200D02*
D03*
X108458Y62760D02*
D03*
X115942Y66500D02*
D03*
D36*
X24012Y16118D02*
D03*
Y18087D02*
D03*
Y22024D02*
D03*
Y25961D02*
D03*
Y27929D02*
D03*
Y29898D02*
D03*
Y23992D02*
D03*
Y20055D02*
D03*
Y70102D02*
D03*
Y72071D02*
D03*
Y76008D02*
D03*
Y79945D02*
D03*
Y81913D02*
D03*
Y83882D02*
D03*
Y77976D02*
D03*
Y74039D02*
D03*
D40*
X71000Y77000D02*
D03*
D53*
X6000Y59984D02*
D03*
Y94000D02*
D03*
Y6000D02*
D03*
Y40016D02*
D03*
D54*
X21748Y59984D02*
D03*
Y94000D02*
D03*
Y6000D02*
D03*
Y40016D02*
D03*
D58*
X255937Y56189D02*
D03*
D59*
X274871Y89929D02*
Y94129D01*
X274500Y94500D02*
X274871Y94129D01*
Y89929D02*
X275721Y89079D01*
Y85400D02*
Y89079D01*
X270373Y13056D02*
X270792Y13475D01*
X264493Y5506D02*
X270373Y11385D01*
Y13056D01*
X271663Y26268D02*
X277000D01*
X271600Y69772D02*
X277000D01*
X271609Y66425D02*
X277000D01*
X271616Y59732D02*
X277000D01*
X271630Y56386D02*
X277000D01*
X271639Y53039D02*
X277000D01*
X271623Y49693D02*
X277000D01*
X271600Y46316D02*
X276970D01*
X271616Y43000D02*
X277000D01*
X271600Y36316D02*
X276991D01*
X271602Y29614D02*
X277000D01*
X271500Y32961D02*
X277000D01*
X275661Y39616D02*
X276962D01*
X275661Y39616D02*
X275661Y39616D01*
X271500Y39616D02*
X275661D01*
X271500Y63079D02*
X277000D01*
X252000Y88797D02*
X254828Y85969D01*
X252000Y88797D02*
Y89000D01*
X254828Y85831D02*
X255259Y85400D01*
X254828Y85831D02*
Y85969D01*
X47415Y67582D02*
X48328Y66669D01*
X51748D01*
X47172Y67582D02*
X47415D01*
X51817Y66600D02*
X52179D01*
X51748Y66669D02*
X51817Y66600D01*
X42100Y72401D02*
X44710D01*
X46005Y71106D01*
Y71095D02*
Y71106D01*
X42100Y83499D02*
X44965D01*
X46005Y82459D01*
X46248D01*
X64300Y53369D02*
Y56800D01*
X63126Y52195D02*
X64300Y53369D01*
X63126Y52065D02*
Y52195D01*
X74690Y55100D02*
X78341D01*
X74657Y55133D02*
X74690Y55100D01*
X74520Y60488D02*
X74570Y60537D01*
X170157Y64500D02*
X170400D01*
X165700Y65079D02*
X169577D01*
X170157Y64500D01*
X71000Y88000D02*
Y88757D01*
X70000Y89757D02*
X71000Y88757D01*
X93212Y60588D02*
X94200Y59600D01*
X94156Y54500D02*
X94278D01*
X90630Y55500D02*
X93156D01*
X90630Y60588D02*
X93212D01*
X93156Y55500D02*
X94156Y54500D01*
X70000Y89757D02*
Y90000D01*
X52158Y84521D02*
X52179Y84542D01*
X48221Y84521D02*
X52158D01*
X48200Y84500D02*
X48221Y84521D01*
X45652Y36931D02*
X47800Y34783D01*
Y33548D02*
Y34783D01*
X45652Y36931D02*
Y37069D01*
X45221Y37500D02*
X45652Y37069D01*
X46657Y25928D02*
X46728D01*
X44810Y24499D02*
X45761Y25450D01*
X42100Y24499D02*
X44810D01*
X42113Y16287D02*
X44513D01*
X42100Y16301D02*
X42113Y16287D01*
X45428Y15372D02*
X46728D01*
X46900Y15200D01*
X44513Y16287D02*
X45428Y15372D01*
X272236Y81436D02*
X272400Y81272D01*
X270685Y81436D02*
X272236D01*
X271500Y73616D02*
X277000D01*
Y77252D02*
Y81257D01*
X266697Y85287D02*
Y85425D01*
Y85287D02*
X267128Y84856D01*
X267266D01*
X270685Y81436D01*
X269520Y77252D02*
Y80271D01*
X270685Y81436D01*
X272866Y77252D02*
Y81272D01*
X272816D02*
X277015D01*
X262827Y19027D02*
Y22134D01*
X264147Y19027D02*
X266136Y21015D01*
Y22096D01*
X266173Y22134D01*
X262827Y19027D02*
X264147D01*
X74570Y60537D02*
X78292D01*
X78341Y60587D01*
X78541D01*
X264500Y94500D02*
X264500D01*
X271848Y87152D01*
Y85831D02*
Y87152D01*
Y85831D02*
X272280Y85400D01*
X274233Y5767D02*
X274500Y5500D01*
X274233Y5767D02*
Y13337D01*
X64500Y93422D02*
Y94500D01*
X55620Y84542D02*
Y84680D01*
X56052Y85111D01*
X56189D01*
X64500Y93422D01*
X75000Y49900D02*
X77321D01*
X78200Y49000D02*
Y49021D01*
X77321Y49900D02*
X78200Y49021D01*
X263256Y82622D02*
X266136Y79742D01*
Y77289D02*
X266173Y77252D01*
X266136Y77289D02*
Y79742D01*
X263256Y82622D02*
Y85425D01*
X258700Y85400D02*
Y88900D01*
X263256Y85425D02*
X263266Y85435D01*
Y88924D01*
X36371Y55000D02*
X38500D01*
X35500D02*
X36371D01*
X38650D02*
X45513D01*
X61904Y44062D02*
X67256D01*
X68984Y45790D02*
X83587D01*
X67256Y44062D02*
X68984Y45790D01*
X83587D02*
X88574Y50778D01*
X95102D01*
X55189D02*
X60176Y45790D01*
Y45790D02*
X61904Y44062D01*
X60176Y45790D02*
Y45790D01*
X49735Y50778D02*
X55189D01*
X95102D02*
X99628Y55304D01*
X45513Y55000D02*
X49735Y50778D01*
X99628Y55304D02*
Y58952D01*
X92955Y65625D02*
X99628Y58952D01*
X90731Y65625D02*
X92955D01*
X90630Y65725D02*
X90731Y65625D01*
X87228Y85437D02*
X87269Y85396D01*
Y80277D02*
Y85396D01*
Y80277D02*
X87309Y80237D01*
X83169Y80918D02*
X83850Y80237D01*
X87309D01*
X82000Y80918D02*
X83169D01*
X55620Y66738D02*
X60000Y71117D01*
X55620Y66600D02*
Y66738D01*
X58660Y66600D02*
X60457Y64803D01*
X55620Y66600D02*
X58660D01*
X60457Y64803D02*
X60700D01*
X55620Y58861D02*
X57370Y57112D01*
X55620Y58861D02*
Y66600D01*
X58687Y57112D02*
X59000Y56799D01*
X57370Y57112D02*
X58687D01*
X52257Y14700D02*
X52500D01*
X65668Y19973D02*
X65697Y19945D01*
X57829Y19973D02*
X65668D01*
X57800Y20002D02*
X57829Y19973D01*
X57800Y14700D02*
Y20002D01*
X52477Y14723D02*
X52500Y14700D01*
X52477Y14723D02*
Y19918D01*
X52454Y19940D02*
X52477Y19918D01*
X71002Y49900D02*
X71041Y49939D01*
Y55061D01*
X71079Y55100D01*
Y60488D01*
X69032Y62674D02*
Y66000D01*
X70648Y60919D02*
X71079Y60488D01*
X70648Y60919D02*
Y61057D01*
X69032Y62674D02*
X70648Y61057D01*
D60*
X210500Y76500D02*
X216424D01*
X217200Y77276D02*
X221307D01*
X216424Y76500D02*
X217200Y77276D01*
X276425Y20425D02*
Y21559D01*
X275411Y19411D02*
X276425Y20425D01*
X275411Y18051D02*
Y19411D01*
X275335Y17974D02*
X275411Y18051D01*
X276425Y21559D02*
X277000Y22134D01*
X27904Y61584D02*
X28049D01*
X28125Y61508D01*
X25276Y64213D02*
X27904Y61584D01*
X24193Y64213D02*
X25276D01*
X24012Y64394D02*
X24193Y64213D01*
X25276Y89772D02*
X28511Y93007D01*
Y93116D02*
X28587Y93193D01*
X28511Y93007D02*
Y93116D01*
X24193Y89772D02*
X25276D01*
X24012Y89591D02*
X24193Y89772D01*
X221307Y77276D02*
X221331Y77252D01*
X221882D01*
X255937Y56189D02*
X259500D01*
X249420Y56209D02*
Y60879D01*
X249400Y60900D02*
X249420Y60879D01*
Y56209D02*
X249441Y56189D01*
X238485Y56195D02*
Y56200D01*
Y56195D02*
X242939D01*
X242776Y56357D02*
X242945Y56189D01*
X242939Y56195D02*
X242945Y56189D01*
X255937Y49689D02*
X259500D01*
X242941Y49696D02*
X242945Y49693D01*
X238408Y49777D02*
X238485Y49700D01*
X238303Y49696D02*
X242941D01*
X238300Y49700D02*
X238303Y49696D01*
X255937Y43189D02*
X259500D01*
X249441Y39606D02*
Y41197D01*
X238302Y43198D02*
X242943D01*
X238300Y43200D02*
X238302Y43198D01*
X242943D02*
X242945Y43197D01*
X170500Y19700D02*
X172070Y18130D01*
X175000D01*
X166700Y12600D02*
Y12708D01*
X164900Y14508D02*
Y19080D01*
Y14508D02*
X166700Y12708D01*
X124350Y39650D02*
X126000Y41300D01*
X155650Y39950D02*
X157000Y41300D01*
X124350Y33858D02*
Y39650D01*
X155650Y33858D02*
Y39950D01*
X57800Y29000D02*
Y34479D01*
X92748Y33000D02*
X98300D01*
X90303Y30555D02*
X92748Y33000D01*
X57800Y29000D02*
X65697D01*
X90303D02*
Y30555D01*
X57800Y23443D02*
Y29000D01*
X53300D02*
X57800D01*
X52477Y28977D02*
X52500Y29000D01*
X52454Y23381D02*
X52477Y23404D01*
Y28977D01*
X29200Y39712D02*
Y41200D01*
X25095Y35606D02*
X29200Y39712D01*
X24012Y35606D02*
X25095D01*
X24012Y10409D02*
X29991D01*
X30000Y10400D01*
X52392Y29000D02*
X52500D01*
X260476Y16677D02*
X262827Y19027D01*
X258400Y16600D02*
X258476Y16677D01*
X260476D01*
X90931Y79918D02*
X93503Y77346D01*
X90931Y79918D02*
Y80056D01*
X90750Y80237D02*
X90931Y80056D01*
X93503Y77346D02*
X95552D01*
X147987Y83858D02*
X155650D01*
X145034Y86811D02*
X147987Y83858D01*
X145000Y86811D02*
X145034D01*
X132013Y83858D02*
X134966Y86811D01*
X135000D01*
X124350Y83858D02*
X132013D01*
X215834Y22834D02*
X215942D01*
X216642Y22134D01*
X221882D01*
X174499Y30901D02*
X180700Y24700D01*
X164900Y30901D02*
X174499D01*
X180700Y21501D02*
Y24700D01*
X142500Y50000D02*
X157586D01*
X164900Y42686D01*
Y30901D02*
Y42686D01*
X93243Y85256D02*
X95444Y83054D01*
X90693Y85256D02*
X93243D01*
X90630Y85319D02*
X90693Y85256D01*
X95444Y83054D02*
X95552D01*
X90630Y85319D02*
Y85437D01*
X183364Y78536D02*
X184800Y77100D01*
X180708Y78536D02*
X183364D01*
X38659Y58159D02*
Y62500D01*
X35500Y55000D02*
X38659Y58159D01*
X30664Y34709D02*
X36209D01*
X38900Y37400D01*
X28412Y32457D02*
X30300Y34345D01*
X30664Y34709D01*
X18057Y32457D02*
X28412D01*
X17641Y13559D02*
X24012D01*
X15900Y15300D02*
Y30300D01*
X18057Y32457D01*
X15900Y15300D02*
X17641Y13559D01*
X35978Y65181D02*
X38659Y62500D01*
X30534Y65181D02*
X35978D01*
X38659Y62500D02*
X41780D01*
X18019Y67555D02*
X24000D01*
X15920Y69654D02*
X18019Y67555D01*
X15920Y69654D02*
Y84009D01*
X18352Y86441D01*
X24012D01*
Y67543D02*
X28171D01*
X30534Y65181D01*
D61*
X51980Y59132D02*
X52051Y59060D01*
X45802Y61781D02*
X48451Y59132D01*
X51980D01*
X45221Y62500D02*
X45802Y61919D01*
Y61781D02*
Y61919D01*
X32721Y61508D02*
Y62000D01*
X30672Y59459D02*
X32721Y61508D01*
X30165Y59459D02*
X30672D01*
X29936Y59230D02*
X30165Y59459D01*
X38085Y70102D02*
X38410D01*
X34000Y71541D02*
X36647D01*
X38085Y70102D01*
X34003Y82456D02*
X36126D01*
X37500Y81082D01*
X32721Y38000D02*
Y42055D01*
X31400Y43375D02*
Y43700D01*
Y43375D02*
X32721Y42055D01*
X37459Y25159D02*
X37600Y25300D01*
X37459Y15941D02*
X37500Y15900D01*
X34000Y25159D02*
X37459D01*
X34000Y15941D02*
X37459D01*
X41198Y38081D02*
Y41802D01*
X35500Y45000D02*
X35737Y44763D01*
X38237D01*
X41198Y41802D01*
Y38081D02*
X41780Y37500D01*
X34716Y50000D02*
X41930D01*
X35280Y38000D02*
X38300D01*
X38900Y37400D02*
X41679D01*
X41780Y37500D01*
X38300Y38000D02*
X38900Y37400D01*
X41930Y50000D02*
X54010Y37920D01*
X57800D01*
X57867Y37988D01*
X65630D01*
X65697Y38055D01*
X67600Y49782D02*
Y49900D01*
X63126Y47012D02*
X63356Y47242D01*
X65060D02*
X67600Y49782D01*
X63356Y47242D02*
X65060D01*
X35280Y62000D02*
X38159D01*
X38659Y62500D01*
D62*
X73000Y65900D02*
Y66020D01*
X71000Y84541D02*
Y88000D01*
Y68020D02*
X73000Y66020D01*
X71000Y68020D02*
Y69459D01*
X78541Y80937D02*
X78560Y80918D01*
X82000D01*
X61946Y73063D02*
X63459D01*
X60000Y71117D02*
X61946Y73063D01*
X69032Y66000D02*
Y69459D01*
D63*
X246200Y46500D02*
X246248D01*
X249441Y49693D01*
X246300Y52834D02*
Y52900D01*
Y52834D02*
X249441Y49693D01*
X252648Y52900D02*
X252700D01*
X249441Y49693D02*
X252648Y52900D01*
X252700Y46400D02*
Y46434D01*
X249441Y49693D02*
X252700Y46434D01*
D64*
X80456Y5751D02*
X84249D01*
X80103Y6104D02*
X80456Y5751D01*
X80103Y6104D02*
Y22881D01*
X79400Y23584D02*
X80103Y22881D01*
X78347Y5604D02*
X78700Y5958D01*
X77997Y23003D02*
X78700Y22300D01*
X75604Y5604D02*
X78347D01*
X78700Y5958D02*
Y22300D01*
X77997Y23003D02*
Y25901D01*
X75000Y5000D02*
X75604Y5604D01*
X79400Y23584D02*
Y25901D01*
X84249Y5751D02*
X84749Y5251D01*
X202201Y49174D02*
X202654Y48721D01*
X202201Y49174D02*
Y51400D01*
X219693Y49693D02*
X221882D01*
X218721Y48721D02*
X219693Y49693D01*
X202654Y48721D02*
X218721D01*
X202301Y46965D02*
X202654Y47318D01*
X202301Y44700D02*
Y46965D01*
X221613Y46616D02*
X221882Y46346D01*
X219403Y46616D02*
X221613D01*
X218700Y47318D02*
X219403Y46616D01*
X202654Y47318D02*
X218700D01*
X196500Y51400D02*
X198799D01*
X194800Y49700D02*
X196500Y51400D01*
X34000Y21605D02*
X34353Y21251D01*
X45452D01*
X46900Y22700D01*
X34000Y21605D02*
Y22600D01*
X27939Y25961D02*
X31300Y22600D01*
X34000D01*
X21053Y25961D02*
X27939D01*
X20700Y25607D02*
X21053Y25961D01*
X20700Y22377D02*
Y25607D01*
Y22377D02*
X21053Y22024D01*
X24012D01*
X194800Y46500D02*
X196600Y44700D01*
X198499D01*
X34000Y19495D02*
X34353Y19849D01*
X45452D01*
X46900Y18400D01*
X34000Y18500D02*
Y19495D01*
X29545Y20055D02*
X31100Y18500D01*
X34000D01*
X27408Y20055D02*
X29545D01*
X24012D02*
X27408D01*
Y23639D01*
X27055Y23992D02*
X27408Y23639D01*
X24012Y23992D02*
X27055D01*
X34000Y75600D02*
X35400Y77000D01*
X34000Y74100D02*
Y75600D01*
X48700Y78500D02*
X52099D01*
X47500Y77300D02*
X48700Y78500D01*
X24012Y74039D02*
X24042Y74070D01*
X33970D01*
X34000Y74100D01*
X23935Y77900D02*
X24012Y77976D01*
X21153Y77900D02*
X23935D01*
X20800Y77547D02*
X21153Y77900D01*
X20800Y74393D02*
Y77547D01*
Y74393D02*
X21153Y74039D01*
X24012D01*
X26908Y76008D02*
X27300Y76400D01*
Y79945D01*
X24012Y76008D02*
X26908D01*
X27300Y79945D02*
X33360D01*
X24012D02*
X27300D01*
X32800Y77000D02*
X34000Y78200D01*
Y80100D01*
X48752Y73500D02*
X52099D01*
X47602Y74650D02*
X48752Y73500D01*
X47450Y74650D02*
X47602D01*
X55400Y73601D02*
X55501Y73500D01*
X55400Y74714D02*
X56000Y75314D01*
X55400Y73601D02*
Y74714D01*
X56000Y75314D02*
X60386D01*
X55501Y78500D02*
X55517Y78483D01*
Y77300D02*
Y78483D01*
Y77300D02*
X56100Y76717D01*
X60417D01*
X60700Y77000D02*
X63459D01*
X60417Y76717D02*
X60700Y77000D01*
X60668Y75032D02*
X63459D01*
X60386Y75314D02*
X60668Y75032D01*
X76599Y27300D02*
X77997Y25901D01*
X79400D02*
X80799Y27300D01*
X206278Y44688D02*
X211578D01*
X206200Y51400D02*
X211500D01*
D65*
X54500Y94500D02*
D03*
X264500Y5500D02*
D03*
X44500D02*
D03*
X184500D02*
D03*
X164500D02*
D03*
X154500D02*
D03*
X174500D02*
D03*
X54500D02*
D03*
X64500D02*
D03*
X74500D02*
D03*
X94500D02*
D03*
X104500D02*
D03*
X124500D02*
D03*
X134500D02*
D03*
X144500D02*
D03*
X114500D02*
D03*
X194500D02*
D03*
X204500D02*
D03*
X214500D02*
D03*
X224500D02*
D03*
X234500D02*
D03*
X244500D02*
D03*
X254500D02*
D03*
X84500D02*
D03*
X124500Y94500D02*
D03*
X134500D02*
D03*
X184500D02*
D03*
X164500D02*
D03*
X154500D02*
D03*
X174500D02*
D03*
X44500D02*
D03*
X74500D02*
D03*
X84500D02*
D03*
X94500D02*
D03*
X104500D02*
D03*
X144500D02*
D03*
X114500D02*
D03*
X194500D02*
D03*
X204500D02*
D03*
X214500D02*
D03*
X224500D02*
D03*
X244500D02*
D03*
X254500D02*
D03*
X64500D02*
D03*
X234500D02*
D03*
X264500D02*
D03*
D66*
X274500D02*
D03*
Y5500D02*
D03*
D67*
X142500Y50000D02*
D03*
X35500Y45000D02*
D03*
Y50000D02*
D03*
D68*
Y55000D02*
D03*
D69*
X137500Y50000D02*
D03*
D70*
X78541Y90000D02*
D03*
X271600Y26205D02*
D03*
X210500Y76500D02*
D03*
X252000Y89000D02*
D03*
X275335Y17974D02*
D03*
X47172Y67582D02*
D03*
X52051Y59060D02*
D03*
X46005Y71095D02*
D03*
X46248Y82459D02*
D03*
X63126Y52065D02*
D03*
X73000Y65900D02*
D03*
X78341Y60587D02*
D03*
X29936Y59230D02*
D03*
X28125Y61508D02*
D03*
X28587Y93193D02*
D03*
X37500Y81082D02*
D03*
X271600Y73116D02*
D03*
Y69772D02*
D03*
Y56416D02*
D03*
Y59716D02*
D03*
Y53000D02*
D03*
Y66416D02*
D03*
Y63100D02*
D03*
X170400Y64500D02*
D03*
X249400Y61000D02*
D03*
X260200Y56189D02*
D03*
X252700Y52900D02*
D03*
X246300D02*
D03*
X238300Y56200D02*
D03*
X192200Y51600D02*
D03*
X271600Y43016D02*
D03*
Y39616D02*
D03*
Y49716D02*
D03*
Y46316D02*
D03*
Y36316D02*
D03*
Y33000D02*
D03*
X260200Y49689D02*
D03*
X252700Y46400D02*
D03*
X260200Y43189D02*
D03*
X246200Y46500D02*
D03*
X238300Y49700D02*
D03*
X214700Y51400D02*
D03*
X238300Y43200D02*
D03*
X214700Y44700D02*
D03*
X192200Y44600D02*
D03*
X249441Y39606D02*
D03*
X170500Y19700D02*
D03*
X157000Y41300D02*
D03*
X166700Y12600D02*
D03*
X73000Y75000D02*
D03*
X70000Y90000D02*
D03*
X73000Y79000D02*
D03*
X94200Y59600D02*
D03*
X112700Y49000D02*
D03*
X107900D02*
D03*
X117500D02*
D03*
X94278Y54500D02*
D03*
X103100Y49000D02*
D03*
X48200Y84500D02*
D03*
X69000Y79000D02*
D03*
Y75000D02*
D03*
X126000Y41300D02*
D03*
X117500Y41000D02*
D03*
X112700D02*
D03*
Y33000D02*
D03*
X117500D02*
D03*
X103100Y41000D02*
D03*
X98300D02*
D03*
X107900D02*
D03*
X98300Y49000D02*
D03*
X47800Y33548D02*
D03*
X103100Y33000D02*
D03*
X98300D02*
D03*
X107900D02*
D03*
X73300Y27300D02*
D03*
X84090D02*
D03*
X57800Y29000D02*
D03*
X52500D02*
D03*
X46900Y25928D02*
D03*
X37600Y25300D02*
D03*
X31400Y43700D02*
D03*
X29200Y41200D02*
D03*
X46900Y15200D02*
D03*
X37500Y15900D02*
D03*
X29991Y10409D02*
D03*
X38410Y70102D02*
D03*
X272400Y81272D02*
D03*
X277015D02*
D03*
X271600Y29616D02*
D03*
X258400Y16600D02*
D03*
X95552Y77346D02*
D03*
X78341Y55100D02*
D03*
X145000Y86811D02*
D03*
X135000D02*
D03*
X215834Y22834D02*
D03*
X242790Y28209D02*
D03*
X256102Y67631D02*
D03*
X259481Y71188D02*
D03*
X252810D02*
D03*
X249500Y67631D02*
D03*
X246113Y71188D02*
D03*
X242803Y67631D02*
D03*
X239410Y71188D02*
D03*
X236100Y67631D02*
D03*
X229403D02*
D03*
X232714Y71188D02*
D03*
X226013D02*
D03*
X84000Y84000D02*
D03*
X190200Y71400D02*
D03*
X193900Y74700D02*
D03*
X78200Y49000D02*
D03*
X258700Y88900D02*
D03*
X263276Y88924D02*
D03*
X95552Y83054D02*
D03*
X184800Y77100D02*
D03*
X169996Y81800D02*
D03*
X89800Y70000D02*
D03*
X249486Y28209D02*
D03*
X229390D02*
D03*
X236087D02*
D03*
X256187D02*
D03*
X63126Y47012D02*
D03*
X60700Y64803D02*
D03*
X160700Y37500D02*
D03*
X225984Y31666D02*
D03*
X179800Y58800D02*
D03*
X181300Y37300D02*
D03*
X192700Y33800D02*
D03*
X193900Y68200D02*
D03*
X232700Y31666D02*
D03*
X196700Y33800D02*
D03*
X259497Y31666D02*
D03*
X190200Y64700D02*
D03*
X200100Y29400D02*
D03*
X193900Y61300D02*
D03*
X252797Y31666D02*
D03*
X239397D02*
D03*
X204100Y29400D02*
D03*
X246100Y31666D02*
D03*
X184700Y37300D02*
D03*
X190114Y58086D02*
D03*
X194800Y49700D02*
D03*
X46900Y22700D02*
D03*
X194800Y46500D02*
D03*
X46900Y18400D02*
D03*
X36000Y77000D02*
D03*
X47500Y77600D02*
D03*
X32100Y77000D02*
D03*
X47500Y74350D02*
D03*
X175650Y58800D02*
D03*
X171500D02*
D03*
X80799Y27300D02*
D03*
X76599D02*
D03*
X211500Y44700D02*
D03*
Y51400D02*
D03*
X52500Y14700D02*
D03*
X57800D02*
D03*
M02*
