G04*
G04 #@! TF.GenerationSoftware,Altium Limited,Altium Designer,26.9.1 (10)*
G04*
G04 Layer_Physical_Order=2*
G04 Layer_Color=39423*
G04 Board_Origin=100000000|62000000*
%FSLAX25Y25*%
%MOIN*%
G70*
G04*
G04 #@! TF.SameCoordinates,2AC94A03-050B-4880-B61B-1EA0B69C7744*
G04*
G04*
G04 #@! TF.FilePolarity,Positive*
G04*
G01*
G75*
G04:AMPARAMS|DCode=53|XSize=39.37mil|YSize=86.61mil|CornerRadius=19.68mil|HoleSize=0mil|Usage=FLASHONLY|Rotation=270.000|XOffset=0mil|YOffset=0mil|HoleType=Round|Shape=RoundedRectangle|*
%AMROUNDEDRECTD53*
21,1,0.03937,0.04724,0,0,270.0*
21,1,0.00000,0.08661,0,0,270.0*
1,1,0.03937,-0.02362,0.00000*
1,1,0.03937,-0.02362,0.00000*
1,1,0.03937,0.02362,0.00000*
1,1,0.03937,0.02362,0.00000*
%
%ADD53ROUNDEDRECTD53*%
G04:AMPARAMS|DCode=54|XSize=39.37mil|YSize=70.87mil|CornerRadius=19.68mil|HoleSize=0mil|Usage=FLASHONLY|Rotation=270.000|XOffset=0mil|YOffset=0mil|HoleType=Round|Shape=RoundedRectangle|*
%AMROUNDEDRECTD54*
21,1,0.03937,0.03150,0,0,270.0*
21,1,0.00000,0.07087,0,0,270.0*
1,1,0.03937,-0.01575,0.00000*
1,1,0.03937,-0.01575,0.00000*
1,1,0.03937,0.01575,0.00000*
1,1,0.03937,0.01575,0.00000*
%
%ADD54ROUNDEDRECTD54*%
%ADD59C,0.01500*%
%ADD63C,0.04000*%
%ADD67C,0.04000*%
%ADD68R,0.04000X0.04000*%
%ADD69R,0.04000X0.04000*%
%ADD70C,0.02400*%
%ADD71C,0.06000*%
%ADD72O,0.05000X0.06400*%
%ADD73R,0.05000X0.06400*%
G36*
X278000Y91320D02*
X272020D01*
Y98000D01*
X278000D01*
Y91320D01*
D02*
G37*
G36*
X99613Y97885D02*
X99951Y97393D01*
X99279Y96721D01*
X99058Y96390D01*
X98980Y96000D01*
Y86080D01*
X90086D01*
X89303Y85977D01*
X88573Y85675D01*
X87946Y85194D01*
X87946Y85194D01*
X86800Y84048D01*
X86200Y84296D01*
Y84438D01*
X85865Y85246D01*
X85246Y85865D01*
X84438Y86200D01*
X83562D01*
X82754Y85865D01*
X82135Y85246D01*
X81800Y84438D01*
Y83562D01*
X82135Y82754D01*
X82754Y82135D01*
X83562Y81800D01*
X83704D01*
X83952Y81200D01*
X81660Y78908D01*
X81179Y78281D01*
X80877Y77551D01*
X80774Y76768D01*
Y52596D01*
X80203Y52026D01*
X78200D01*
X77417Y51923D01*
X76687Y51621D01*
X76060Y51140D01*
X75580Y50513D01*
X75277Y49783D01*
X75174Y49000D01*
X75277Y48217D01*
X75580Y47487D01*
X76060Y46860D01*
X76687Y46380D01*
X77417Y46077D01*
X78200Y45974D01*
X81457D01*
X82240Y46077D01*
X82970Y46380D01*
X83596Y46860D01*
X85940Y49204D01*
X86421Y49830D01*
X86723Y50560D01*
X86826Y51343D01*
Y75515D01*
X91339Y80028D01*
X98980D01*
Y78000D01*
X99058Y77610D01*
X99279Y77279D01*
X99610Y77058D01*
X100000Y76980D01*
X115578D01*
X127279Y65279D01*
X127610Y65058D01*
X128000Y64980D01*
X135058D01*
X139474Y60564D01*
Y53000D01*
X137697D01*
X137500Y53026D01*
X137303Y53000D01*
X134500D01*
Y50197D01*
X134474Y50000D01*
Y40319D01*
X134006Y39709D01*
X133603Y38736D01*
X133466Y37692D01*
Y31490D01*
X120710Y18734D01*
X68462D01*
X68428Y18741D01*
X68238Y18779D01*
X49964D01*
X49574Y18701D01*
X49500Y18652D01*
X49269Y18708D01*
X48857Y18901D01*
X48595Y19533D01*
X48033Y20096D01*
X47720Y20225D01*
Y20875D01*
X48033Y21004D01*
X48595Y21567D01*
X48900Y22302D01*
Y23098D01*
X48595Y23833D01*
X48033Y24396D01*
X47298Y24700D01*
X46502D01*
X45767Y24396D01*
X45204Y23833D01*
X44900Y23098D01*
Y22302D01*
X45204Y21567D01*
X45767Y21004D01*
X46080Y20875D01*
Y20225D01*
X45767Y20096D01*
X45204Y19533D01*
X44900Y18798D01*
Y18002D01*
X45204Y17267D01*
X45767Y16704D01*
X46502Y16400D01*
X47298D01*
X48033Y16704D01*
X48345Y17016D01*
X48945Y16768D01*
Y11675D01*
X49022Y11285D01*
X49243Y10954D01*
X49574Y10733D01*
X49964Y10655D01*
X67869D01*
X67872Y10656D01*
X67874Y10655D01*
X67925Y10666D01*
X122381D01*
X122381Y10666D01*
X123425Y10803D01*
X124398Y11206D01*
X125234Y11847D01*
X140353Y26966D01*
X140994Y27802D01*
X141397Y28775D01*
X141534Y29819D01*
Y37692D01*
X141397Y38736D01*
X140994Y39709D01*
X140526Y40319D01*
Y46891D01*
X141126Y47151D01*
X141262Y47060D01*
X141653Y46983D01*
X142435D01*
X142500Y46974D01*
X142565Y46983D01*
X144325D01*
X144716Y47060D01*
X145046Y47281D01*
X148721Y50956D01*
X148942Y51287D01*
X149020Y51677D01*
Y57578D01*
X158422Y66980D01*
X184000D01*
X184390Y67058D01*
X184721Y67279D01*
X187737Y70295D01*
X188325Y70178D01*
X188335Y70154D01*
X188954Y69535D01*
X189762Y69200D01*
X190638D01*
X191417Y69523D01*
X191523Y69473D01*
X191914Y69154D01*
X191700Y68638D01*
Y67762D01*
X192035Y66954D01*
X192654Y66335D01*
X193462Y66000D01*
X194338D01*
X195146Y66335D01*
X195765Y66954D01*
X196100Y67762D01*
Y68638D01*
X195765Y69446D01*
X195146Y70065D01*
X194338Y70400D01*
X193462D01*
X192683Y70077D01*
X192577Y70127D01*
X192186Y70446D01*
X192400Y70962D01*
Y71838D01*
X192115Y72525D01*
X192624Y72865D01*
X192654Y72835D01*
X193462Y72500D01*
X194338D01*
X195146Y72835D01*
X195765Y73454D01*
X196100Y74262D01*
Y75138D01*
X195765Y75946D01*
X195146Y76565D01*
X194840Y76692D01*
X194722Y77281D01*
X196422Y78980D01*
X256420D01*
X261480Y73921D01*
Y73148D01*
X260880Y72900D01*
X260727Y73053D01*
X259918Y73388D01*
X259043D01*
X258234Y73053D01*
X257615Y72434D01*
X257281Y71626D01*
Y70750D01*
X257569Y70054D01*
X257339Y69711D01*
X257170Y69570D01*
X256540Y69831D01*
X255664D01*
X255139Y69613D01*
X255095Y69644D01*
X254739Y70097D01*
X255010Y70750D01*
Y71626D01*
X254675Y72434D01*
X254056Y73053D01*
X253248Y73388D01*
X252373D01*
X251564Y73053D01*
X250945Y72434D01*
X250610Y71626D01*
Y70750D01*
X250885Y70088D01*
X250557Y69657D01*
X250485Y69604D01*
X249938Y69831D01*
X249062D01*
X248423Y69566D01*
X248241Y69719D01*
X248023Y70049D01*
X248313Y70750D01*
Y71626D01*
X247978Y72434D01*
X247360Y73053D01*
X246551Y73388D01*
X245676D01*
X244867Y73053D01*
X244248Y72434D01*
X243914Y71626D01*
Y70750D01*
X244188Y70088D01*
X243860Y69657D01*
X243788Y69604D01*
X243241Y69831D01*
X242366D01*
X241718Y69563D01*
X241520Y69732D01*
X241315Y70038D01*
X241610Y70750D01*
Y71626D01*
X241275Y72434D01*
X240656Y73053D01*
X239848Y73388D01*
X238973D01*
X238164Y73053D01*
X237545Y72434D01*
X237210Y71626D01*
Y70750D01*
X237485Y70088D01*
X237157Y69657D01*
X237085Y69604D01*
X236538Y69831D01*
X235662D01*
X235023Y69566D01*
X234841Y69719D01*
X234623Y70049D01*
X234913Y70750D01*
Y71626D01*
X234578Y72434D01*
X233960Y73053D01*
X233151Y73388D01*
X232276D01*
X231467Y73053D01*
X230848Y72434D01*
X230514Y71626D01*
Y70750D01*
X230788Y70088D01*
X230460Y69657D01*
X230388Y69604D01*
X229841Y69831D01*
X228966D01*
X228322Y69564D01*
X228133Y69725D01*
X227920Y70043D01*
X228214Y70750D01*
Y71626D01*
X227878Y72434D01*
X227260Y73053D01*
X226451Y73388D01*
X225576D01*
X224767Y73053D01*
X224148Y72434D01*
X223814Y71626D01*
Y70750D01*
X224148Y69942D01*
X224767Y69323D01*
X225576Y68988D01*
X226451D01*
X227095Y69255D01*
X227284Y69094D01*
X227496Y68776D01*
X227203Y68068D01*
Y67193D01*
X227538Y66385D01*
X228157Y65766D01*
X228966Y65431D01*
X229841D01*
X230649Y65766D01*
X231268Y66385D01*
X231603Y67193D01*
Y68068D01*
X231329Y68731D01*
X231657Y69162D01*
X231728Y69215D01*
X232276Y68988D01*
X233151D01*
X233791Y69253D01*
X233972Y69100D01*
X234191Y68770D01*
X233900Y68068D01*
Y67193D01*
X234235Y66385D01*
X234854Y65766D01*
X235662Y65431D01*
X236538D01*
X237346Y65766D01*
X237965Y66385D01*
X238300Y67193D01*
Y68068D01*
X238025Y68731D01*
X238353Y69162D01*
X238425Y69215D01*
X238973Y68988D01*
X239848D01*
X240495Y69256D01*
X240693Y69087D01*
X240899Y68781D01*
X240603Y68068D01*
Y67193D01*
X240938Y66385D01*
X241557Y65766D01*
X242366Y65431D01*
X243241D01*
X244050Y65766D01*
X244668Y66385D01*
X245003Y67193D01*
Y68068D01*
X244729Y68731D01*
X245057Y69162D01*
X245128Y69215D01*
X245676Y68988D01*
X246551D01*
X247191Y69253D01*
X247372Y69100D01*
X247591Y68770D01*
X247300Y68068D01*
Y67193D01*
X247635Y66385D01*
X248254Y65766D01*
X249062Y65431D01*
X249938D01*
X250746Y65766D01*
X251365Y66385D01*
X251700Y67193D01*
Y68068D01*
X251426Y68731D01*
X251753Y69162D01*
X251825Y69215D01*
X252373Y68988D01*
X253248D01*
X253773Y69206D01*
X253817Y69174D01*
X254173Y68722D01*
X253902Y68068D01*
Y67193D01*
X254237Y66385D01*
X254856Y65766D01*
X255664Y65431D01*
X256540D01*
X257348Y65766D01*
X257967Y66385D01*
X258302Y67193D01*
Y68068D01*
X258013Y68765D01*
X258243Y69108D01*
X258413Y69249D01*
X259043Y68988D01*
X259918D01*
X260727Y69323D01*
X260880Y69476D01*
X261480Y69228D01*
Y33643D01*
X260880Y33394D01*
X260743Y33531D01*
X259934Y33866D01*
X259059D01*
X258250Y33531D01*
X257632Y32913D01*
X257297Y32104D01*
Y31229D01*
X257521Y30687D01*
X257062Y30228D01*
X256624Y30409D01*
X255749D01*
X255212Y30187D01*
X254756Y30647D01*
X254997Y31229D01*
Y32104D01*
X254662Y32913D01*
X254043Y33531D01*
X253234Y33866D01*
X252359D01*
X251551Y33531D01*
X250932Y32913D01*
X250597Y32104D01*
Y31229D01*
X250821Y30687D01*
X250362Y30228D01*
X249924Y30409D01*
X249049D01*
X248518Y30189D01*
X248060Y30649D01*
X248300Y31229D01*
Y32104D01*
X247965Y32913D01*
X247346Y33531D01*
X246538Y33866D01*
X245662D01*
X244854Y33531D01*
X244235Y32913D01*
X243900Y32104D01*
Y31229D01*
X244125Y30687D01*
X243665Y30228D01*
X243227Y30409D01*
X242352D01*
X241810Y30184D01*
X241355Y30645D01*
X241597Y31229D01*
Y32104D01*
X241262Y32913D01*
X240643Y33531D01*
X239834Y33866D01*
X238959D01*
X238151Y33531D01*
X237532Y32913D01*
X237197Y32104D01*
Y31229D01*
X237421Y30687D01*
X236962Y30228D01*
X236524Y30409D01*
X235649D01*
X235118Y30189D01*
X234660Y30649D01*
X234900Y31229D01*
Y32104D01*
X234565Y32913D01*
X233946Y33531D01*
X233138Y33866D01*
X232262D01*
X231454Y33531D01*
X230835Y32913D01*
X230500Y32104D01*
Y31229D01*
X230725Y30687D01*
X230265Y30228D01*
X229827Y30409D01*
X228952D01*
X228388Y30175D01*
X227940Y30639D01*
X228184Y31229D01*
Y32104D01*
X227849Y32913D01*
X227230Y33531D01*
X226422Y33866D01*
X225547D01*
X224738Y33531D01*
X224119Y32913D01*
X223784Y32104D01*
Y31229D01*
X224119Y30420D01*
X224738Y29801D01*
X225547Y29466D01*
X226422D01*
X226986Y29700D01*
X227434Y29236D01*
X227190Y28647D01*
Y27771D01*
X227525Y26963D01*
X228144Y26344D01*
X228952Y26009D01*
X229827D01*
X230636Y26344D01*
X231255Y26963D01*
X231590Y27771D01*
Y28647D01*
X231365Y29188D01*
X231824Y29648D01*
X232262Y29466D01*
X233138D01*
X233669Y29686D01*
X234127Y29227D01*
X233887Y28647D01*
Y27771D01*
X234222Y26963D01*
X234840Y26344D01*
X235649Y26009D01*
X236524D01*
X237333Y26344D01*
X237952Y26963D01*
X238286Y27771D01*
Y28647D01*
X238062Y29188D01*
X238521Y29648D01*
X238959Y29466D01*
X239834D01*
X240377Y29691D01*
X240831Y29230D01*
X240590Y28647D01*
Y27771D01*
X240925Y26963D01*
X241544Y26344D01*
X242352Y26009D01*
X243227D01*
X244036Y26344D01*
X244655Y26963D01*
X244990Y27771D01*
Y28647D01*
X244765Y29188D01*
X245224Y29648D01*
X245662Y29466D01*
X246538D01*
X247069Y29686D01*
X247527Y29227D01*
X247287Y28647D01*
Y27771D01*
X247621Y26963D01*
X248240Y26344D01*
X249049Y26009D01*
X249924D01*
X250733Y26344D01*
X251352Y26963D01*
X251687Y27771D01*
Y28647D01*
X251462Y29188D01*
X251921Y29648D01*
X252359Y29466D01*
X253234D01*
X253771Y29689D01*
X254227Y29228D01*
X253987Y28647D01*
Y27771D01*
X254322Y26963D01*
X254940Y26344D01*
X255749Y26009D01*
X256624D01*
X257433Y26344D01*
X258052Y26963D01*
X258386Y27771D01*
Y28647D01*
X258162Y29188D01*
X258621Y29648D01*
X259059Y29466D01*
X259934D01*
X260743Y29801D01*
X260880Y29939D01*
X261480Y29690D01*
Y23020D01*
X240000D01*
X239610Y22942D01*
X239279Y22721D01*
X229279Y12721D01*
X229058Y12390D01*
X228980Y12000D01*
Y2000D01*
X227519D01*
X227223Y2600D01*
X227557Y3035D01*
X227910Y3886D01*
X228030Y4800D01*
Y6200D01*
X227910Y7114D01*
X227557Y7965D01*
X226996Y8696D01*
X226265Y9257D01*
X225414Y9610D01*
X224500Y9730D01*
X223586Y9610D01*
X222735Y9257D01*
X222004Y8696D01*
X221443Y7965D01*
X221090Y7114D01*
X220970Y6200D01*
Y4800D01*
X221090Y3886D01*
X221443Y3035D01*
X221777Y2600D01*
X221481Y2000D01*
X217519D01*
X217224Y2600D01*
X217557Y3035D01*
X217910Y3886D01*
X218030Y4800D01*
Y6200D01*
X217910Y7114D01*
X217557Y7965D01*
X216996Y8696D01*
X216265Y9257D01*
X215414Y9610D01*
X214500Y9730D01*
X213586Y9610D01*
X212735Y9257D01*
X212004Y8696D01*
X211443Y7965D01*
X211090Y7114D01*
X210970Y6200D01*
Y4800D01*
X211090Y3886D01*
X211443Y3035D01*
X211776Y2600D01*
X211481Y2000D01*
X207519D01*
X207224Y2600D01*
X207557Y3035D01*
X207910Y3886D01*
X208030Y4800D01*
Y6200D01*
X207910Y7114D01*
X207557Y7965D01*
X206996Y8696D01*
X206265Y9257D01*
X205414Y9610D01*
X204500Y9730D01*
X203586Y9610D01*
X202735Y9257D01*
X202004Y8696D01*
X201443Y7965D01*
X201090Y7114D01*
X200970Y6200D01*
Y4800D01*
X201090Y3886D01*
X201443Y3035D01*
X201777Y2600D01*
X201481Y2000D01*
X197519D01*
X197223Y2600D01*
X197557Y3035D01*
X197910Y3886D01*
X198030Y4800D01*
Y6200D01*
X197910Y7114D01*
X197557Y7965D01*
X196996Y8696D01*
X196265Y9257D01*
X195414Y9610D01*
X194500Y9730D01*
X193586Y9610D01*
X192735Y9257D01*
X192004Y8696D01*
X191443Y7965D01*
X191090Y7114D01*
X190970Y6200D01*
Y4800D01*
X191090Y3886D01*
X191443Y3035D01*
X191777Y2600D01*
X191481Y2000D01*
X187519D01*
X187223Y2600D01*
X187557Y3035D01*
X187910Y3886D01*
X188030Y4800D01*
Y6200D01*
X187910Y7114D01*
X187557Y7965D01*
X186996Y8696D01*
X186265Y9257D01*
X185414Y9610D01*
X184500Y9730D01*
X183586Y9610D01*
X182735Y9257D01*
X182004Y8696D01*
X181443Y7965D01*
X181090Y7114D01*
X180970Y6200D01*
Y4800D01*
X181090Y3886D01*
X181443Y3035D01*
X181776Y2600D01*
X181481Y2000D01*
X177519D01*
X177224Y2600D01*
X177557Y3035D01*
X177910Y3886D01*
X178030Y4800D01*
Y6200D01*
X177910Y7114D01*
X177557Y7965D01*
X176996Y8696D01*
X176265Y9257D01*
X175414Y9610D01*
X174500Y9730D01*
X173586Y9610D01*
X172735Y9257D01*
X172004Y8696D01*
X171443Y7965D01*
X171090Y7114D01*
X170970Y6200D01*
Y4800D01*
X171090Y3886D01*
X171443Y3035D01*
X171776Y2600D01*
X171481Y2000D01*
X167519D01*
X167224Y2600D01*
X167557Y3035D01*
X167910Y3886D01*
X168030Y4800D01*
Y6200D01*
X167910Y7114D01*
X167557Y7965D01*
X166996Y8696D01*
X166265Y9257D01*
X165414Y9610D01*
X164500Y9730D01*
X163586Y9610D01*
X162735Y9257D01*
X162004Y8696D01*
X161443Y7965D01*
X161090Y7114D01*
X160970Y6200D01*
Y4800D01*
X161090Y3886D01*
X161443Y3035D01*
X161776Y2600D01*
X161481Y2000D01*
X157519D01*
X157223Y2600D01*
X157557Y3035D01*
X157910Y3886D01*
X158030Y4800D01*
Y6200D01*
X157910Y7114D01*
X157557Y7965D01*
X156996Y8696D01*
X156265Y9257D01*
X155414Y9610D01*
X154500Y9730D01*
X153586Y9610D01*
X152735Y9257D01*
X152004Y8696D01*
X151443Y7965D01*
X151090Y7114D01*
X150970Y6200D01*
Y4800D01*
X151090Y3886D01*
X151443Y3035D01*
X151777Y2600D01*
X151481Y2000D01*
X147519D01*
X147223Y2600D01*
X147557Y3035D01*
X147910Y3886D01*
X148030Y4800D01*
Y6200D01*
X147910Y7114D01*
X147557Y7965D01*
X146996Y8696D01*
X146265Y9257D01*
X145414Y9610D01*
X144500Y9730D01*
X143586Y9610D01*
X142735Y9257D01*
X142004Y8696D01*
X141443Y7965D01*
X141090Y7114D01*
X140970Y6200D01*
Y4800D01*
X141090Y3886D01*
X141443Y3035D01*
X141777Y2600D01*
X141481Y2000D01*
X137519D01*
X137223Y2600D01*
X137557Y3035D01*
X137910Y3886D01*
X138030Y4800D01*
Y6200D01*
X137910Y7114D01*
X137557Y7965D01*
X136996Y8696D01*
X136265Y9257D01*
X135414Y9610D01*
X134500Y9730D01*
X133586Y9610D01*
X132735Y9257D01*
X132004Y8696D01*
X131443Y7965D01*
X131090Y7114D01*
X130970Y6200D01*
Y4800D01*
X131090Y3886D01*
X131443Y3035D01*
X131776Y2600D01*
X131481Y2000D01*
X127519D01*
X127224Y2600D01*
X127557Y3035D01*
X127910Y3886D01*
X128030Y4800D01*
Y6200D01*
X127910Y7114D01*
X127557Y7965D01*
X126996Y8696D01*
X126265Y9257D01*
X125414Y9610D01*
X124500Y9730D01*
X123586Y9610D01*
X122735Y9257D01*
X122004Y8696D01*
X121443Y7965D01*
X121090Y7114D01*
X120970Y6200D01*
Y4800D01*
X121090Y3886D01*
X121443Y3035D01*
X121776Y2600D01*
X121481Y2000D01*
X117519D01*
X117224Y2600D01*
X117557Y3035D01*
X117910Y3886D01*
X118030Y4800D01*
Y6200D01*
X117910Y7114D01*
X117557Y7965D01*
X116996Y8696D01*
X116265Y9257D01*
X115414Y9610D01*
X114500Y9730D01*
X113586Y9610D01*
X112735Y9257D01*
X112004Y8696D01*
X111443Y7965D01*
X111090Y7114D01*
X110970Y6200D01*
Y4800D01*
X111090Y3886D01*
X111443Y3035D01*
X111776Y2600D01*
X111481Y2000D01*
X107519D01*
X107223Y2600D01*
X107557Y3035D01*
X107910Y3886D01*
X108030Y4800D01*
Y6200D01*
X107910Y7114D01*
X107557Y7965D01*
X106996Y8696D01*
X106265Y9257D01*
X105414Y9610D01*
X104500Y9730D01*
X103586Y9610D01*
X102735Y9257D01*
X102004Y8696D01*
X101443Y7965D01*
X101090Y7114D01*
X100970Y6200D01*
Y4800D01*
X101090Y3886D01*
X101443Y3035D01*
X101777Y2600D01*
X101481Y2000D01*
X97519D01*
X97224Y2600D01*
X97557Y3035D01*
X97910Y3886D01*
X98030Y4800D01*
Y6200D01*
X97910Y7114D01*
X97557Y7965D01*
X96996Y8696D01*
X96265Y9257D01*
X95414Y9610D01*
X94500Y9730D01*
X93586Y9610D01*
X92735Y9257D01*
X92004Y8696D01*
X91443Y7965D01*
X91090Y7114D01*
X90970Y6200D01*
Y4800D01*
X91090Y3886D01*
X91443Y3035D01*
X91777Y2600D01*
X91481Y2000D01*
X87189D01*
X86971Y2600D01*
X87383Y3136D01*
X87715Y3938D01*
X87828Y4800D01*
Y6200D01*
X87715Y7062D01*
X87383Y7864D01*
X86854Y8554D01*
X86164Y9083D01*
X85361Y9415D01*
X84500Y9528D01*
X83639Y9415D01*
X82836Y9083D01*
X82146Y8554D01*
X81617Y7864D01*
X81285Y7062D01*
X81172Y6200D01*
Y4800D01*
X81285Y3938D01*
X81617Y3136D01*
X82029Y2600D01*
X81811Y2000D01*
X77189D01*
X76972Y2600D01*
X77383Y3136D01*
X77715Y3938D01*
X77829Y4800D01*
Y6200D01*
X77715Y7062D01*
X77383Y7864D01*
X76854Y8554D01*
X76164Y9083D01*
X75362Y9415D01*
X74500Y9528D01*
X73638Y9415D01*
X72836Y9083D01*
X72146Y8554D01*
X71617Y7864D01*
X71285Y7062D01*
X71171Y6200D01*
Y4800D01*
X71285Y3938D01*
X71617Y3136D01*
X72028Y2600D01*
X71811Y2000D01*
X67519D01*
X67224Y2600D01*
X67557Y3035D01*
X67910Y3886D01*
X68030Y4800D01*
Y6200D01*
X67910Y7114D01*
X67557Y7965D01*
X66996Y8696D01*
X66265Y9257D01*
X65414Y9610D01*
X64500Y9730D01*
X63586Y9610D01*
X62735Y9257D01*
X62004Y8696D01*
X61443Y7965D01*
X61090Y7114D01*
X60970Y6200D01*
Y4800D01*
X61090Y3886D01*
X61443Y3035D01*
X61777Y2600D01*
X61481Y2000D01*
X57519D01*
X57223Y2600D01*
X57557Y3035D01*
X57910Y3886D01*
X58030Y4800D01*
Y6200D01*
X57910Y7114D01*
X57557Y7965D01*
X56996Y8696D01*
X56265Y9257D01*
X55414Y9610D01*
X54500Y9730D01*
X53586Y9610D01*
X52735Y9257D01*
X52004Y8696D01*
X51443Y7965D01*
X51090Y7114D01*
X50970Y6200D01*
Y4800D01*
X51090Y3886D01*
X51443Y3035D01*
X51776Y2600D01*
X51481Y2000D01*
X2000D01*
Y98000D01*
X41481D01*
X41776Y97400D01*
X41443Y96965D01*
X41090Y96114D01*
X40970Y95200D01*
Y93800D01*
X41090Y92886D01*
X41443Y92035D01*
X42004Y91304D01*
X42735Y90743D01*
X43586Y90390D01*
X44500Y90270D01*
X45414Y90390D01*
X46265Y90743D01*
X46996Y91304D01*
X47557Y92035D01*
X47910Y92886D01*
X48030Y93800D01*
Y95200D01*
X47910Y96114D01*
X47557Y96965D01*
X47223Y97400D01*
X47519Y98000D01*
X61481D01*
X61777Y97400D01*
X61443Y96965D01*
X61090Y96114D01*
X60970Y95200D01*
Y93800D01*
X61090Y92886D01*
X61443Y92035D01*
X62004Y91304D01*
X62735Y90743D01*
X63586Y90390D01*
X64500Y90270D01*
X65414Y90390D01*
X66265Y90743D01*
X66996Y91304D01*
X67557Y92035D01*
X67910Y92886D01*
X68030Y93800D01*
Y95200D01*
X67910Y96114D01*
X67557Y96965D01*
X67224Y97400D01*
X67519Y98000D01*
X71481D01*
X71776Y97400D01*
X71443Y96965D01*
X71090Y96114D01*
X70970Y95200D01*
Y93800D01*
X71090Y92886D01*
X71443Y92035D01*
X72004Y91304D01*
X72735Y90743D01*
X73586Y90390D01*
X74500Y90270D01*
X75414Y90390D01*
X75785Y90544D01*
X76341Y90125D01*
Y89562D01*
X76676Y88754D01*
X77295Y88135D01*
X78104Y87800D01*
X78979D01*
X79787Y88135D01*
X80406Y88754D01*
X80741Y89562D01*
Y90438D01*
X80406Y91246D01*
X79787Y91865D01*
X78979Y92200D01*
X78275D01*
X77932Y92572D01*
X77851Y92745D01*
X77910Y92886D01*
X78030Y93800D01*
Y95200D01*
X77910Y96114D01*
X77557Y96965D01*
X77223Y97400D01*
X77519Y98000D01*
X81481D01*
X81776Y97400D01*
X81443Y96965D01*
X81090Y96114D01*
X80970Y95200D01*
Y93800D01*
X81090Y92886D01*
X81443Y92035D01*
X82004Y91304D01*
X82735Y90743D01*
X83586Y90390D01*
X84500Y90270D01*
X85414Y90390D01*
X86265Y90743D01*
X86996Y91304D01*
X87557Y92035D01*
X87910Y92886D01*
X88030Y93800D01*
Y95200D01*
X87910Y96114D01*
X87557Y96965D01*
X87224Y97400D01*
X87519Y98000D01*
X91481D01*
X91777Y97400D01*
X91443Y96965D01*
X91090Y96114D01*
X90970Y95200D01*
Y93800D01*
X91090Y92886D01*
X91443Y92035D01*
X92004Y91304D01*
X92735Y90743D01*
X93586Y90390D01*
X94500Y90270D01*
X95414Y90390D01*
X96265Y90743D01*
X96996Y91304D01*
X97557Y92035D01*
X97910Y92886D01*
X98030Y93800D01*
Y95200D01*
X97910Y96114D01*
X97557Y96965D01*
X97224Y97400D01*
X97519Y98000D01*
X99517D01*
X99613Y97885D01*
D02*
G37*
G36*
X253067Y90282D02*
X253091Y90226D01*
X253097Y89977D01*
X253089Y89847D01*
X253064Y89719D01*
X253077Y89650D01*
X253073Y89580D01*
X253116Y89457D01*
X253141Y89329D01*
X253180Y89235D01*
Y88765D01*
X253001Y88331D01*
X252838Y88169D01*
X252800Y88140D01*
X252800Y88140D01*
X252653Y87993D01*
X252250Y87826D01*
X251750D01*
X251347Y87993D01*
X251200Y88140D01*
X251162Y88169D01*
X250999Y88331D01*
X250820Y88765D01*
Y89235D01*
X250999Y89669D01*
X251331Y90001D01*
X251774Y90184D01*
X251932Y90289D01*
X252091Y90392D01*
X252097Y90400D01*
X252105Y90405D01*
X252133Y90448D01*
X252392Y90575D01*
X253067Y90282D01*
D02*
G37*
G36*
X271000Y90300D02*
X278000D01*
Y83785D01*
X277501Y83452D01*
X277453Y83472D01*
X276577D01*
X275769Y83137D01*
X275150Y82518D01*
X275032Y82234D01*
X274383D01*
X274265Y82518D01*
X273646Y83137D01*
X272838Y83472D01*
X271962D01*
X271154Y83137D01*
X270535Y82518D01*
X270200Y81710D01*
Y80835D01*
X270535Y80026D01*
X271154Y79407D01*
X271962Y79072D01*
X272838D01*
X273646Y79407D01*
X274265Y80026D01*
X274383Y80310D01*
X275032D01*
X275150Y80026D01*
X275769Y79407D01*
X276577Y79072D01*
X277453D01*
X277501Y79092D01*
X278000Y78759D01*
Y18857D01*
X277400Y18737D01*
X277200Y19220D01*
X276581Y19839D01*
X275773Y20174D01*
X274897D01*
X274089Y19839D01*
X273470Y19220D01*
X273135Y18412D01*
Y17537D01*
X273470Y16728D01*
X274089Y16109D01*
X274897Y15774D01*
X275773D01*
X276581Y16109D01*
X277200Y16728D01*
X277400Y17211D01*
X278000Y17092D01*
Y2598D01*
X277995Y2000D01*
X267519D01*
X267224Y2600D01*
X267557Y3035D01*
X267910Y3886D01*
X268030Y4800D01*
Y6200D01*
X267910Y7114D01*
X267557Y7965D01*
X266996Y8696D01*
X266265Y9257D01*
X265414Y9610D01*
X264500Y9730D01*
X263586Y9610D01*
X262735Y9257D01*
X262004Y8696D01*
X261443Y7965D01*
X261090Y7114D01*
X260970Y6200D01*
Y4800D01*
X261090Y3886D01*
X261443Y3035D01*
X261776Y2600D01*
X261481Y2000D01*
X257519D01*
X257224Y2600D01*
X257557Y3035D01*
X257910Y3886D01*
X258030Y4800D01*
Y6200D01*
X257910Y7114D01*
X257557Y7965D01*
X256996Y8696D01*
X256265Y9257D01*
X255414Y9610D01*
X254500Y9730D01*
X253586Y9610D01*
X252735Y9257D01*
X252004Y8696D01*
X251443Y7965D01*
X251090Y7114D01*
X250970Y6200D01*
Y4800D01*
X251090Y3886D01*
X251443Y3035D01*
X251777Y2600D01*
X251481Y2000D01*
X247519D01*
X247223Y2600D01*
X247557Y3035D01*
X247910Y3886D01*
X248030Y4800D01*
Y6200D01*
X247910Y7114D01*
X247557Y7965D01*
X246996Y8696D01*
X246265Y9257D01*
X245414Y9610D01*
X244500Y9730D01*
X243586Y9610D01*
X242735Y9257D01*
X242004Y8696D01*
X241443Y7965D01*
X241090Y7114D01*
X240970Y6200D01*
Y4800D01*
X241090Y3886D01*
X241443Y3035D01*
X241776Y2600D01*
X241481Y2000D01*
X237519D01*
X237224Y2600D01*
X237557Y3035D01*
X237910Y3886D01*
X238030Y4800D01*
Y6200D01*
X237910Y7114D01*
X237557Y7965D01*
X236996Y8696D01*
X236265Y9257D01*
X235414Y9610D01*
X234500Y9730D01*
X233586Y9610D01*
X232735Y9257D01*
X232004Y8696D01*
X231443Y7965D01*
X231090Y7114D01*
X230970Y6200D01*
Y4800D01*
X231090Y3886D01*
X231443Y3035D01*
X231776Y2600D01*
X231481Y2000D01*
X230000D01*
Y12000D01*
X240000Y22000D01*
X262500D01*
Y74343D01*
X256843Y80000D01*
X196000D01*
X189485Y73485D01*
X188954Y73265D01*
X188335Y72646D01*
X188115Y72115D01*
X184000Y68000D01*
X158000D01*
X148000Y58000D01*
Y51677D01*
X144325Y48002D01*
X141653D01*
X140547Y49108D01*
X140547Y60933D01*
X135480Y66000D01*
X128000D01*
X116000Y78000D01*
X100000D01*
Y96000D01*
X100672Y96672D01*
X101181Y96332D01*
X101090Y96114D01*
X100970Y95200D01*
Y93800D01*
X101090Y92886D01*
X101443Y92035D01*
X102004Y91304D01*
X102735Y90743D01*
X103586Y90390D01*
X104500Y90270D01*
X105414Y90390D01*
X106265Y90743D01*
X106996Y91304D01*
X107557Y92035D01*
X107910Y92886D01*
X108030Y93800D01*
Y95200D01*
X107910Y96114D01*
X107557Y96965D01*
X107223Y97400D01*
X107519Y98000D01*
X111481D01*
X111776Y97400D01*
X111443Y96965D01*
X111090Y96114D01*
X110970Y95200D01*
Y93800D01*
X111090Y92886D01*
X111443Y92035D01*
X112004Y91304D01*
X112735Y90743D01*
X113586Y90390D01*
X114500Y90270D01*
X115414Y90390D01*
X116265Y90743D01*
X116996Y91304D01*
X117557Y92035D01*
X117910Y92886D01*
X118030Y93800D01*
Y95200D01*
X117910Y96114D01*
X117557Y96965D01*
X117224Y97400D01*
X117519Y98000D01*
X121481D01*
X121776Y97400D01*
X121443Y96965D01*
X121090Y96114D01*
X120970Y95200D01*
Y93800D01*
X121090Y92886D01*
X121443Y92035D01*
X122004Y91304D01*
X122735Y90743D01*
X123586Y90390D01*
X124500Y90270D01*
X125414Y90390D01*
X126265Y90743D01*
X126996Y91304D01*
X127557Y92035D01*
X127910Y92886D01*
X128030Y93800D01*
Y95200D01*
X127910Y96114D01*
X127557Y96965D01*
X127224Y97400D01*
X127519Y98000D01*
X131481D01*
X131776Y97400D01*
X131443Y96965D01*
X131090Y96114D01*
X130970Y95200D01*
Y93800D01*
X131090Y92886D01*
X131443Y92035D01*
X132004Y91304D01*
X132735Y90743D01*
X133586Y90390D01*
X134500Y90270D01*
X135414Y90390D01*
X136265Y90743D01*
X136996Y91304D01*
X137557Y92035D01*
X137910Y92886D01*
X138030Y93800D01*
Y95200D01*
X137910Y96114D01*
X137557Y96965D01*
X137223Y97400D01*
X137519Y98000D01*
X141481D01*
X141777Y97400D01*
X141443Y96965D01*
X141090Y96114D01*
X140970Y95200D01*
Y93800D01*
X141090Y92886D01*
X141443Y92035D01*
X142004Y91304D01*
X142735Y90743D01*
X143586Y90390D01*
X144500Y90270D01*
X145414Y90390D01*
X146265Y90743D01*
X146996Y91304D01*
X147557Y92035D01*
X147910Y92886D01*
X148030Y93800D01*
Y95200D01*
X147910Y96114D01*
X147557Y96965D01*
X147223Y97400D01*
X147519Y98000D01*
X151481D01*
X151777Y97400D01*
X151443Y96965D01*
X151090Y96114D01*
X150970Y95200D01*
Y93800D01*
X151090Y92886D01*
X151443Y92035D01*
X152004Y91304D01*
X152735Y90743D01*
X153586Y90390D01*
X154500Y90270D01*
X155414Y90390D01*
X156265Y90743D01*
X156996Y91304D01*
X157557Y92035D01*
X157910Y92886D01*
X158030Y93800D01*
Y95200D01*
X157910Y96114D01*
X157557Y96965D01*
X157223Y97400D01*
X157519Y98000D01*
X161481D01*
X161776Y97400D01*
X161443Y96965D01*
X161090Y96114D01*
X160970Y95200D01*
Y93800D01*
X161090Y92886D01*
X161443Y92035D01*
X162004Y91304D01*
X162735Y90743D01*
X163586Y90390D01*
X164500Y90270D01*
X165414Y90390D01*
X166265Y90743D01*
X166996Y91304D01*
X167557Y92035D01*
X167910Y92886D01*
X168030Y93800D01*
Y95200D01*
X167910Y96114D01*
X167557Y96965D01*
X167224Y97400D01*
X167519Y98000D01*
X171481D01*
X171776Y97400D01*
X171443Y96965D01*
X171090Y96114D01*
X170970Y95200D01*
Y93800D01*
X171090Y92886D01*
X171443Y92035D01*
X172004Y91304D01*
X172735Y90743D01*
X173586Y90390D01*
X174500Y90270D01*
X175414Y90390D01*
X176265Y90743D01*
X176996Y91304D01*
X177557Y92035D01*
X177910Y92886D01*
X178030Y93800D01*
Y95200D01*
X177910Y96114D01*
X177557Y96965D01*
X177224Y97400D01*
X177519Y98000D01*
X181481D01*
X181776Y97400D01*
X181443Y96965D01*
X181090Y96114D01*
X180970Y95200D01*
Y93800D01*
X181090Y92886D01*
X181443Y92035D01*
X182004Y91304D01*
X182735Y90743D01*
X183586Y90390D01*
X184500Y90270D01*
X185414Y90390D01*
X186265Y90743D01*
X186996Y91304D01*
X187557Y92035D01*
X187910Y92886D01*
X188030Y93800D01*
Y95200D01*
X187910Y96114D01*
X187557Y96965D01*
X187223Y97400D01*
X187519Y98000D01*
X191481D01*
X191777Y97400D01*
X191443Y96965D01*
X191090Y96114D01*
X190970Y95200D01*
Y93800D01*
X191090Y92886D01*
X191443Y92035D01*
X192004Y91304D01*
X192735Y90743D01*
X193586Y90390D01*
X194500Y90270D01*
X195414Y90390D01*
X196265Y90743D01*
X196996Y91304D01*
X197557Y92035D01*
X197910Y92886D01*
X198030Y93800D01*
Y95200D01*
X197910Y96114D01*
X197557Y96965D01*
X197223Y97400D01*
X197519Y98000D01*
X201481D01*
X201777Y97400D01*
X201443Y96965D01*
X201090Y96114D01*
X200970Y95200D01*
Y93800D01*
X201090Y92886D01*
X201443Y92035D01*
X202004Y91304D01*
X202735Y90743D01*
X203586Y90390D01*
X204500Y90270D01*
X205414Y90390D01*
X206265Y90743D01*
X206996Y91304D01*
X207557Y92035D01*
X207910Y92886D01*
X208030Y93800D01*
Y95200D01*
X207910Y96114D01*
X207557Y96965D01*
X207224Y97400D01*
X207519Y98000D01*
X211481D01*
X211776Y97400D01*
X211443Y96965D01*
X211090Y96114D01*
X210970Y95200D01*
Y93800D01*
X211090Y92886D01*
X211443Y92035D01*
X212004Y91304D01*
X212735Y90743D01*
X213586Y90390D01*
X214500Y90270D01*
X215414Y90390D01*
X216265Y90743D01*
X216996Y91304D01*
X217557Y92035D01*
X217910Y92886D01*
X218030Y93800D01*
Y95200D01*
X217910Y96114D01*
X217557Y96965D01*
X217224Y97400D01*
X217519Y98000D01*
X221481D01*
X221777Y97400D01*
X221443Y96965D01*
X221090Y96114D01*
X220970Y95200D01*
Y93800D01*
X221090Y92886D01*
X221443Y92035D01*
X222004Y91304D01*
X222735Y90743D01*
X223586Y90390D01*
X224500Y90270D01*
X225414Y90390D01*
X226265Y90743D01*
X226996Y91304D01*
X227557Y92035D01*
X227910Y92886D01*
X228030Y93800D01*
Y95200D01*
X227910Y96114D01*
X227557Y96965D01*
X227223Y97400D01*
X227519Y98000D01*
X231481D01*
X231776Y97400D01*
X231443Y96965D01*
X231090Y96114D01*
X230970Y95200D01*
Y93800D01*
X231090Y92886D01*
X231443Y92035D01*
X232004Y91304D01*
X232735Y90743D01*
X233586Y90390D01*
X234500Y90270D01*
X235414Y90390D01*
X236265Y90743D01*
X236996Y91304D01*
X237557Y92035D01*
X237910Y92886D01*
X238030Y93800D01*
Y95200D01*
X237910Y96114D01*
X237557Y96965D01*
X237224Y97400D01*
X237519Y98000D01*
X241481D01*
X241776Y97400D01*
X241443Y96965D01*
X241090Y96114D01*
X240970Y95200D01*
Y93800D01*
X241090Y92886D01*
X241443Y92035D01*
X242004Y91304D01*
X242735Y90743D01*
X243586Y90390D01*
X244500Y90270D01*
X245414Y90390D01*
X246265Y90743D01*
X246996Y91304D01*
X247557Y92035D01*
X247910Y92886D01*
X248030Y93800D01*
Y95200D01*
X247910Y96114D01*
X247557Y96965D01*
X247223Y97400D01*
X247519Y98000D01*
X251481D01*
X251777Y97400D01*
X251443Y96965D01*
X251090Y96114D01*
X250970Y95200D01*
Y93800D01*
X251090Y92886D01*
X251443Y92035D01*
X251623Y91800D01*
X251606Y91636D01*
X251384Y91126D01*
X250754Y90865D01*
X250135Y90246D01*
X249800Y89438D01*
Y88562D01*
X250135Y87754D01*
X250754Y87135D01*
X251562Y86800D01*
X252438D01*
X253246Y87135D01*
X253865Y87754D01*
X254200Y88562D01*
Y89438D01*
X254083Y89719D01*
X254500Y90270D01*
X255414Y90390D01*
X256265Y90743D01*
X256996Y91304D01*
X257557Y92035D01*
X257910Y92886D01*
X258030Y93800D01*
Y95200D01*
X257910Y96114D01*
X257557Y96965D01*
X257224Y97400D01*
X257519Y98000D01*
X271000D01*
Y90300D01*
D02*
G37*
G36*
X277302Y82452D02*
X277403D01*
X277501Y82433D01*
X277873Y82150D01*
X277993Y81939D01*
X278000Y81920D01*
Y80624D01*
X277993Y80605D01*
X277873Y80395D01*
X277501Y80112D01*
X277403Y80092D01*
X277302D01*
X277301Y80092D01*
X276780D01*
X276346Y80272D01*
X276014Y80603D01*
X275974Y80700D01*
X275753Y81031D01*
Y81351D01*
X275864Y81679D01*
X275974Y81844D01*
X276014Y81941D01*
X276346Y82273D01*
X276780Y82453D01*
X277301D01*
X277302Y82452D01*
D02*
G37*
G36*
X273069Y82273D02*
X273401Y81941D01*
X273441Y81844D01*
X273551Y81679D01*
X273662Y81351D01*
Y81193D01*
X273551Y80866D01*
X273441Y80700D01*
X273401Y80603D01*
X273069Y80272D01*
X272635Y80092D01*
X272165D01*
X271731Y80272D01*
X271399Y80603D01*
X271220Y81037D01*
Y81507D01*
X271399Y81941D01*
X271731Y82273D01*
X272165Y82453D01*
X272635D01*
X273069Y82273D01*
D02*
G37*
G36*
X276004Y18975D02*
X276336Y18643D01*
X276458Y18347D01*
X276552Y18170D01*
Y17778D01*
X276458Y17601D01*
X276336Y17305D01*
X276004Y16973D01*
X275570Y16794D01*
X275100D01*
X274666Y16973D01*
X274334Y17305D01*
X274154Y17739D01*
Y18209D01*
X274334Y18643D01*
X274666Y18975D01*
X275100Y19155D01*
X275570D01*
X276004Y18975D01*
D02*
G37*
G36*
X68291Y12101D02*
X67869Y11675D01*
X49964D01*
Y17759D01*
X68238D01*
X68291Y12101D01*
D02*
G37*
G36*
X265147Y8617D02*
X265751Y8367D01*
X266269Y7969D01*
X266667Y7451D01*
X266917Y6848D01*
X267011Y6133D01*
Y4867D01*
X266917Y4152D01*
X266667Y3549D01*
X266415Y3221D01*
X266341Y3072D01*
X266258Y2928D01*
X266254Y2894D01*
X266239Y2864D01*
X266228Y2698D01*
X266206Y2533D01*
X266086Y2323D01*
X265875Y2085D01*
X265728Y2000D01*
X263272D01*
X263125Y2085D01*
X262915Y2323D01*
X262794Y2533D01*
X262772Y2698D01*
X262761Y2864D01*
X262746Y2894D01*
X262742Y2928D01*
X262659Y3072D01*
X262585Y3221D01*
X262333Y3549D01*
X262083Y4152D01*
X261989Y4867D01*
Y6133D01*
X262083Y6848D01*
X262333Y7451D01*
X262731Y7969D01*
X263249Y8367D01*
X263853Y8617D01*
X264500Y8702D01*
X265147Y8617D01*
D02*
G37*
%LPC*%
G36*
X36398Y79000D02*
X35602D01*
X34867Y78695D01*
X34404Y78232D01*
X34050Y78175D01*
X33696Y78232D01*
X33233Y78695D01*
X32498Y79000D01*
X31702D01*
X30967Y78695D01*
X30404Y78133D01*
X30100Y77398D01*
Y76602D01*
X30404Y75867D01*
X30967Y75305D01*
X31702Y75000D01*
X32498D01*
X33233Y75305D01*
X33696Y75768D01*
X34050Y75826D01*
X34404Y75768D01*
X34867Y75305D01*
X35602Y75000D01*
X36398D01*
X37133Y75305D01*
X37696Y75867D01*
X38000Y76602D01*
Y77398D01*
X37696Y78133D01*
X37133Y78695D01*
X36398Y79000D01*
D02*
G37*
G36*
X47898Y79600D02*
X47102D01*
X46367Y79295D01*
X45805Y78733D01*
X45500Y77998D01*
Y77202D01*
X45805Y76467D01*
X46297Y75975D01*
X45805Y75483D01*
X45500Y74748D01*
Y73952D01*
X45805Y73217D01*
X46367Y72654D01*
X47102Y72350D01*
X47898D01*
X48633Y72654D01*
X49196Y73217D01*
X49500Y73952D01*
Y74748D01*
X49196Y75483D01*
X48703Y75975D01*
X49196Y76467D01*
X49500Y77202D01*
Y77998D01*
X49196Y78733D01*
X48633Y79295D01*
X47898Y79600D01*
D02*
G37*
G36*
X90238Y72200D02*
X89362D01*
X88554Y71865D01*
X87935Y71246D01*
X87600Y70438D01*
Y69562D01*
X87935Y68754D01*
X88554Y68135D01*
X89362Y67800D01*
X90238D01*
X91046Y68135D01*
X91665Y68754D01*
X92000Y69562D01*
Y70438D01*
X91665Y71246D01*
X91046Y71865D01*
X90238Y72200D01*
D02*
G37*
G36*
X61138Y67003D02*
X60262D01*
X59454Y66668D01*
X58835Y66049D01*
X58500Y65241D01*
Y64366D01*
X58835Y63557D01*
X59454Y62938D01*
X60262Y62603D01*
X61138D01*
X61946Y62938D01*
X62565Y63557D01*
X62900Y64366D01*
Y65241D01*
X62565Y66049D01*
X61946Y66668D01*
X61138Y67003D01*
D02*
G37*
G36*
X190638Y66900D02*
X189762D01*
X188954Y66565D01*
X188335Y65946D01*
X188000Y65138D01*
Y64262D01*
X188335Y63454D01*
X188954Y62835D01*
X189762Y62500D01*
X190638D01*
X191446Y62835D01*
X192065Y63454D01*
X192400Y64262D01*
Y65138D01*
X192065Y65946D01*
X191446Y66565D01*
X190638Y66900D01*
D02*
G37*
G36*
X180238Y61000D02*
X179362D01*
X178554Y60665D01*
X178097Y60208D01*
X177725Y60105D01*
X177353Y60208D01*
X176896Y60665D01*
X176088Y61000D01*
X175212D01*
X174404Y60665D01*
X173947Y60208D01*
X173575Y60105D01*
X173203Y60208D01*
X172746Y60665D01*
X171938Y61000D01*
X171062D01*
X170254Y60665D01*
X169635Y60046D01*
X169300Y59238D01*
Y58362D01*
X169635Y57554D01*
X170254Y56935D01*
X171062Y56600D01*
X171938D01*
X172746Y56935D01*
X173203Y57392D01*
X173575Y57495D01*
X173947Y57392D01*
X174404Y56935D01*
X175212Y56600D01*
X176088D01*
X176896Y56935D01*
X177353Y57392D01*
X177725Y57495D01*
X178097Y57392D01*
X178554Y56935D01*
X179362Y56600D01*
X180238D01*
X181046Y56935D01*
X181665Y57554D01*
X182000Y58362D01*
Y59238D01*
X181665Y60046D01*
X181046Y60665D01*
X180238Y61000D01*
D02*
G37*
G36*
X194338Y63500D02*
X193462D01*
X192654Y63165D01*
X192035Y62546D01*
X191700Y61738D01*
Y60862D01*
X191985Y60175D01*
X191476Y59835D01*
X191360Y59951D01*
X190552Y60286D01*
X189677D01*
X188868Y59951D01*
X188249Y59332D01*
X187914Y58523D01*
Y57648D01*
X188249Y56840D01*
X188868Y56221D01*
X189677Y55886D01*
X190552D01*
X191360Y56221D01*
X191979Y56840D01*
X192314Y57648D01*
Y58523D01*
X192030Y59211D01*
X192538Y59551D01*
X192654Y59435D01*
X193462Y59100D01*
X194338D01*
X195146Y59435D01*
X195765Y60054D01*
X196100Y60862D01*
Y61738D01*
X195765Y62546D01*
X195146Y63165D01*
X194338Y63500D01*
D02*
G37*
G36*
X38500Y58000D02*
X32500D01*
Y52000D01*
X32500D01*
X32844Y51400D01*
X32704Y51158D01*
X32500Y50395D01*
Y49605D01*
X32704Y48842D01*
X33099Y48158D01*
X33349Y47908D01*
X33597Y47500D01*
X33349Y47092D01*
X33099Y46842D01*
X32704Y46158D01*
X32500Y45395D01*
Y44605D01*
X32704Y43842D01*
X33099Y43158D01*
X33658Y42599D01*
X34342Y42204D01*
X35105Y42000D01*
X35895D01*
X36658Y42204D01*
X37342Y42599D01*
X37901Y43158D01*
X38296Y43842D01*
X38500Y44605D01*
Y45395D01*
X38296Y46158D01*
X37901Y46842D01*
X37651Y47092D01*
X37403Y47500D01*
X37651Y47908D01*
X37901Y48158D01*
X38296Y48842D01*
X38500Y49605D01*
Y50395D01*
X38296Y51158D01*
X38156Y51400D01*
X38500Y52000D01*
X38500D01*
Y58000D01*
D02*
G37*
G36*
X211898Y53400D02*
X211102D01*
X210367Y53096D01*
X209805Y52533D01*
X209500Y51798D01*
Y51002D01*
X209805Y50267D01*
X210367Y49705D01*
X211102Y49400D01*
X211898D01*
X212633Y49705D01*
X213195Y50267D01*
X213500Y51002D01*
Y51798D01*
X213195Y52533D01*
X212633Y53096D01*
X211898Y53400D01*
D02*
G37*
G36*
X63564Y49212D02*
X62688D01*
X61880Y48877D01*
X61261Y48259D01*
X60926Y47450D01*
Y46575D01*
X61261Y45766D01*
X61880Y45147D01*
X62688Y44812D01*
X63564D01*
X64372Y45147D01*
X64991Y45766D01*
X65326Y46575D01*
Y47450D01*
X64991Y48259D01*
X64372Y48877D01*
X63564Y49212D01*
D02*
G37*
G36*
X195198Y51700D02*
X194402D01*
X193667Y51395D01*
X193105Y50833D01*
X192800Y50098D01*
Y49302D01*
X193105Y48567D01*
X193572Y48100D01*
X193105Y47633D01*
X192800Y46898D01*
Y46102D01*
X193105Y45367D01*
X193667Y44804D01*
X194402Y44500D01*
X195198D01*
X195933Y44804D01*
X196495Y45367D01*
X196800Y46102D01*
Y46898D01*
X196495Y47633D01*
X196028Y48100D01*
X196495Y48567D01*
X196800Y49302D01*
Y50098D01*
X196495Y50833D01*
X195933Y51395D01*
X195198Y51700D01*
D02*
G37*
G36*
X211898Y46700D02*
X211102D01*
X210367Y46395D01*
X209805Y45833D01*
X209500Y45098D01*
Y44302D01*
X209805Y43567D01*
X210367Y43005D01*
X211102Y42700D01*
X211898D01*
X212633Y43005D01*
X213195Y43567D01*
X213500Y44302D01*
Y45098D01*
X213195Y45833D01*
X212633Y46395D01*
X211898Y46700D01*
D02*
G37*
G36*
X185138Y39500D02*
X184262D01*
X183454Y39165D01*
X183000Y38711D01*
X182546Y39165D01*
X181738Y39500D01*
X180862D01*
X180054Y39165D01*
X179435Y38546D01*
X179100Y37738D01*
Y36862D01*
X179435Y36054D01*
X180054Y35435D01*
X180862Y35100D01*
X181738D01*
X182546Y35435D01*
X183000Y35889D01*
X183454Y35435D01*
X184262Y35100D01*
X185138D01*
X185946Y35435D01*
X186565Y36054D01*
X186900Y36862D01*
Y37738D01*
X186565Y38546D01*
X185946Y39165D01*
X185138Y39500D01*
D02*
G37*
G36*
X161138Y39700D02*
X160262D01*
X159454Y39365D01*
X158835Y38746D01*
X158500Y37938D01*
Y37062D01*
X158835Y36254D01*
X159454Y35635D01*
X160262Y35300D01*
X161138D01*
X161946Y35635D01*
X162565Y36254D01*
X162900Y37062D01*
Y37938D01*
X162565Y38746D01*
X161946Y39365D01*
X161138Y39700D01*
D02*
G37*
G36*
X197138Y36000D02*
X196262D01*
X195454Y35665D01*
X195092Y35303D01*
X194700Y35112D01*
X194308Y35303D01*
X193946Y35665D01*
X193138Y36000D01*
X192262D01*
X191454Y35665D01*
X190835Y35046D01*
X190500Y34238D01*
Y33362D01*
X190835Y32554D01*
X191454Y31935D01*
X192262Y31600D01*
X193138D01*
X193946Y31935D01*
X194308Y32297D01*
X194700Y32488D01*
X195092Y32297D01*
X195454Y31935D01*
X196262Y31600D01*
X197138D01*
X197946Y31935D01*
X198565Y32554D01*
X198900Y33362D01*
Y34238D01*
X198565Y35046D01*
X197946Y35665D01*
X197138Y36000D01*
D02*
G37*
G36*
X204538Y31600D02*
X203662D01*
X202854Y31265D01*
X202492Y30903D01*
X202100Y30712D01*
X201708Y30903D01*
X201346Y31265D01*
X200538Y31600D01*
X199662D01*
X198854Y31265D01*
X198235Y30646D01*
X197900Y29838D01*
Y28962D01*
X198235Y28154D01*
X198854Y27535D01*
X199662Y27200D01*
X200538D01*
X201346Y27535D01*
X201708Y27897D01*
X202100Y28088D01*
X202492Y27897D01*
X202854Y27535D01*
X203662Y27200D01*
X204538D01*
X205346Y27535D01*
X205965Y28154D01*
X206300Y28962D01*
Y29838D01*
X205965Y30646D01*
X205346Y31265D01*
X204538Y31600D01*
D02*
G37*
G36*
X81196Y29300D02*
X80401D01*
X79666Y28995D01*
X79103Y28433D01*
X79023Y28240D01*
X78374D01*
X78294Y28433D01*
X77731Y28995D01*
X76996Y29300D01*
X76201D01*
X75466Y28995D01*
X74903Y28433D01*
X74598Y27698D01*
Y26902D01*
X74903Y26167D01*
X75466Y25605D01*
X76201Y25300D01*
X76996D01*
X77731Y25605D01*
X78294Y26167D01*
X78374Y26360D01*
X79023D01*
X79103Y26167D01*
X79666Y25605D01*
X80401Y25300D01*
X81196D01*
X81931Y25605D01*
X82494Y26167D01*
X82798Y26902D01*
Y27698D01*
X82494Y28433D01*
X81931Y28995D01*
X81196Y29300D01*
D02*
G37*
G36*
X145438Y89011D02*
X144562D01*
X143754Y88676D01*
X143135Y88057D01*
X142800Y87249D01*
Y86373D01*
X143135Y85565D01*
X143754Y84946D01*
X144562Y84611D01*
X145438D01*
X146246Y84946D01*
X146865Y85565D01*
X147200Y86373D01*
Y87249D01*
X146865Y88057D01*
X146246Y88676D01*
X145438Y89011D01*
D02*
G37*
G36*
X135438D02*
X134562D01*
X133754Y88676D01*
X133135Y88057D01*
X132800Y87249D01*
Y86373D01*
X133135Y85565D01*
X133754Y84946D01*
X134562Y84611D01*
X135438D01*
X136246Y84946D01*
X136865Y85565D01*
X137200Y86373D01*
Y87249D01*
X136865Y88057D01*
X136246Y88676D01*
X135438Y89011D01*
D02*
G37*
G36*
X170434Y84000D02*
X169559D01*
X168750Y83665D01*
X168131Y83046D01*
X167796Y82238D01*
Y81362D01*
X168131Y80554D01*
X168750Y79935D01*
X169559Y79600D01*
X170434D01*
X171243Y79935D01*
X171861Y80554D01*
X172196Y81362D01*
Y82238D01*
X171861Y83046D01*
X171243Y83665D01*
X170434Y84000D01*
D02*
G37*
G36*
X272038Y75316D02*
X271162D01*
X270354Y74981D01*
X269735Y74362D01*
X269400Y73554D01*
Y72678D01*
X269735Y71870D01*
X270161Y71444D01*
X269735Y71018D01*
X269400Y70209D01*
Y69334D01*
X269735Y68525D01*
X270167Y68094D01*
X269735Y67662D01*
X269400Y66854D01*
Y65978D01*
X269735Y65170D01*
X270147Y64758D01*
X269735Y64346D01*
X269400Y63538D01*
Y62662D01*
X269735Y61854D01*
X270181Y61408D01*
X269735Y60962D01*
X269400Y60154D01*
Y59278D01*
X269735Y58470D01*
X270139Y58066D01*
X269735Y57662D01*
X269400Y56854D01*
Y55978D01*
X269735Y55170D01*
X270197Y54708D01*
X269735Y54246D01*
X269400Y53438D01*
Y52562D01*
X269735Y51754D01*
X270131Y51358D01*
X269735Y50962D01*
X269400Y50154D01*
Y49278D01*
X269735Y48470D01*
X270189Y48016D01*
X269735Y47562D01*
X269400Y46754D01*
Y45878D01*
X269735Y45070D01*
X270139Y44666D01*
X269735Y44262D01*
X269400Y43454D01*
Y42578D01*
X269735Y41770D01*
X270189Y41316D01*
X269735Y40862D01*
X269400Y40054D01*
Y39178D01*
X269735Y38370D01*
X270139Y37966D01*
X269735Y37562D01*
X269400Y36754D01*
Y35878D01*
X269735Y35070D01*
X270147Y34658D01*
X269735Y34246D01*
X269400Y33438D01*
Y32562D01*
X269735Y31754D01*
X270181Y31308D01*
X269735Y30862D01*
X269400Y30054D01*
Y29178D01*
X269735Y28370D01*
X270194Y27910D01*
X269735Y27451D01*
X269400Y26642D01*
Y25767D01*
X269735Y24959D01*
X270354Y24340D01*
X271162Y24005D01*
X272038D01*
X272846Y24340D01*
X273465Y24959D01*
X273800Y25767D01*
Y26642D01*
X273465Y27451D01*
X273006Y27910D01*
X273465Y28370D01*
X273800Y29178D01*
Y30054D01*
X273465Y30862D01*
X273019Y31308D01*
X273465Y31754D01*
X273800Y32562D01*
Y33438D01*
X273465Y34246D01*
X273053Y34658D01*
X273465Y35070D01*
X273800Y35878D01*
Y36754D01*
X273465Y37562D01*
X273061Y37966D01*
X273465Y38370D01*
X273800Y39178D01*
Y40054D01*
X273465Y40862D01*
X273011Y41316D01*
X273465Y41770D01*
X273800Y42578D01*
Y43454D01*
X273465Y44262D01*
X273061Y44666D01*
X273465Y45070D01*
X273800Y45878D01*
Y46754D01*
X273465Y47562D01*
X273011Y48016D01*
X273465Y48470D01*
X273800Y49278D01*
Y50154D01*
X273465Y50962D01*
X273069Y51358D01*
X273465Y51754D01*
X273800Y52562D01*
Y53438D01*
X273465Y54246D01*
X273003Y54708D01*
X273465Y55170D01*
X273800Y55978D01*
Y56854D01*
X273465Y57662D01*
X273061Y58066D01*
X273465Y58470D01*
X273800Y59278D01*
Y60154D01*
X273465Y60962D01*
X273019Y61408D01*
X273465Y61854D01*
X273800Y62662D01*
Y63538D01*
X273465Y64346D01*
X273053Y64758D01*
X273465Y65170D01*
X273800Y65978D01*
Y66854D01*
X273465Y67662D01*
X273033Y68094D01*
X273465Y68525D01*
X273800Y69334D01*
Y70209D01*
X273465Y71018D01*
X273039Y71444D01*
X273465Y71870D01*
X273800Y72678D01*
Y73554D01*
X273465Y74362D01*
X272846Y74981D01*
X272038Y75316D01*
D02*
G37*
G36*
X258838Y18800D02*
X257962D01*
X257154Y18465D01*
X256535Y17846D01*
X256200Y17038D01*
Y16162D01*
X256535Y15354D01*
X257154Y14735D01*
X257962Y14400D01*
X258838D01*
X259646Y14735D01*
X260265Y15354D01*
X260600Y16162D01*
Y17038D01*
X260265Y17846D01*
X259646Y18465D01*
X258838Y18800D01*
D02*
G37*
%LPD*%
G36*
X145669Y87812D02*
X146001Y87480D01*
X146180Y87046D01*
Y86576D01*
X146001Y86142D01*
X145669Y85810D01*
X145235Y85631D01*
X144765D01*
X144331Y85810D01*
X143999Y86142D01*
X143820Y86576D01*
Y87046D01*
X143999Y87480D01*
X144331Y87812D01*
X144765Y87991D01*
X145235D01*
X145669Y87812D01*
D02*
G37*
G36*
X135669D02*
X136001Y87480D01*
X136180Y87046D01*
Y86576D01*
X136001Y86142D01*
X135669Y85810D01*
X135235Y85631D01*
X134765D01*
X134331Y85810D01*
X133999Y86142D01*
X133820Y86576D01*
Y87046D01*
X133999Y87480D01*
X134331Y87812D01*
X134765Y87991D01*
X135235D01*
X135669Y87812D01*
D02*
G37*
G36*
X272269Y74117D02*
X272601Y73785D01*
X272780Y73351D01*
Y72881D01*
X272601Y72447D01*
X272318Y72165D01*
X272097Y71834D01*
X272020Y71444D01*
X272097Y71054D01*
X272318Y70723D01*
X272601Y70440D01*
X272780Y70006D01*
Y69537D01*
X272601Y69103D01*
X272312Y68815D01*
X272092Y68484D01*
X272014Y68094D01*
X272092Y67704D01*
X272312Y67373D01*
X272601Y67085D01*
X272780Y66651D01*
Y66181D01*
X272601Y65747D01*
X272332Y65479D01*
Y65479D01*
X272332D01*
X272259Y65369D01*
X272111Y65148D01*
X272034Y64758D01*
D01*
Y64758D01*
X272049Y64680D01*
X272111Y64368D01*
X272332Y64037D01*
X272332D01*
Y64037D01*
X272601Y63769D01*
X272780Y63335D01*
Y62865D01*
X272601Y62431D01*
X272298Y62129D01*
X272225Y62019D01*
X272077Y61798D01*
X272000Y61408D01*
D01*
Y61408D01*
X272015Y61330D01*
X272077Y61018D01*
X272298Y60687D01*
X272601Y60385D01*
X272780Y59951D01*
Y59481D01*
X272601Y59047D01*
X272340Y58787D01*
X272119Y58456D01*
X272042Y58066D01*
X272119Y57676D01*
X272340Y57345D01*
X272601Y57085D01*
X272780Y56651D01*
Y56181D01*
X272601Y55747D01*
X272282Y55429D01*
Y55429D01*
X272282D01*
X272209Y55319D01*
X272061Y55098D01*
X271984Y54708D01*
D01*
Y54708D01*
X271999Y54630D01*
X272061Y54318D01*
X272282Y53987D01*
X272282D01*
Y53987D01*
X272601Y53669D01*
X272780Y53235D01*
Y52765D01*
X272601Y52331D01*
X272348Y52079D01*
X272275Y51969D01*
X272127Y51748D01*
X272050Y51358D01*
D01*
Y51358D01*
X272065Y51280D01*
X272127Y50968D01*
X272348Y50637D01*
X272601Y50385D01*
X272780Y49951D01*
Y49481D01*
X272601Y49047D01*
X272290Y48737D01*
X272069Y48406D01*
X271992Y48016D01*
X272069Y47626D01*
X272290Y47295D01*
X272601Y46985D01*
X272780Y46551D01*
Y46081D01*
X272601Y45647D01*
X272340Y45387D01*
X272119Y45056D01*
X272042Y44666D01*
X272119Y44276D01*
X272340Y43945D01*
X272601Y43685D01*
X272780Y43251D01*
Y42781D01*
X272601Y42347D01*
X272290Y42037D01*
X272069Y41706D01*
X271992Y41316D01*
X272069Y40926D01*
X272290Y40595D01*
X272601Y40285D01*
X272780Y39851D01*
Y39381D01*
X272601Y38947D01*
X272340Y38687D01*
X272119Y38356D01*
X272042Y37966D01*
X272119Y37576D01*
X272340Y37245D01*
X272601Y36985D01*
X272780Y36551D01*
Y36081D01*
X272601Y35647D01*
X272332Y35379D01*
Y35379D01*
X272332D01*
X272259Y35269D01*
X272111Y35048D01*
X272034Y34658D01*
D01*
Y34658D01*
X272049Y34580D01*
X272111Y34268D01*
X272332Y33937D01*
X272332D01*
Y33937D01*
X272601Y33669D01*
X272780Y33235D01*
Y32765D01*
X272601Y32331D01*
X272298Y32029D01*
X272225Y31919D01*
X272077Y31698D01*
X272000Y31308D01*
D01*
Y31308D01*
X272015Y31230D01*
X272077Y30918D01*
X272298Y30587D01*
X272601Y30285D01*
X272780Y29851D01*
Y29381D01*
X272601Y28947D01*
X272285Y28631D01*
Y28631D01*
X272285D01*
X272064Y28301D01*
X272002Y27988D01*
X271986Y27910D01*
D01*
Y27910D01*
X272064Y27520D01*
X272152Y27388D01*
X272285Y27189D01*
X272285Y27189D01*
X272601Y26873D01*
X272780Y26440D01*
Y25970D01*
X272601Y25536D01*
X272269Y25204D01*
X271835Y25024D01*
X271365D01*
X270931Y25204D01*
X270599Y25536D01*
X270420Y25970D01*
Y26440D01*
X270599Y26873D01*
X270915Y27189D01*
Y27189D01*
X270915D01*
X270989Y27299D01*
X271136Y27520D01*
X271214Y27910D01*
Y27910D01*
D01*
X271136Y28301D01*
X270989Y28522D01*
X270915Y28631D01*
X270915D01*
Y28631D01*
X270599Y28947D01*
X270420Y29381D01*
Y29851D01*
X270599Y30285D01*
X270902Y30587D01*
X270975Y30697D01*
X271123Y30918D01*
X271200Y31308D01*
Y31308D01*
D01*
X271123Y31698D01*
X270975Y31919D01*
X270902Y32029D01*
X270599Y32331D01*
X270420Y32765D01*
Y33235D01*
X270599Y33669D01*
X270868Y33937D01*
Y33937D01*
X270868D01*
X271089Y34268D01*
X271151Y34580D01*
X271166Y34658D01*
Y34658D01*
D01*
X271089Y35048D01*
X270941Y35269D01*
X270868Y35379D01*
X270868D01*
Y35379D01*
X270599Y35647D01*
X270420Y36081D01*
Y36551D01*
X270599Y36985D01*
X270860Y37245D01*
X271081Y37576D01*
X271158Y37966D01*
X271081Y38356D01*
X270860Y38687D01*
X270599Y38947D01*
X270420Y39381D01*
Y39851D01*
X270599Y40285D01*
X270910Y40595D01*
X271131Y40926D01*
X271208Y41316D01*
X271131Y41706D01*
X270910Y42037D01*
X270599Y42347D01*
X270420Y42781D01*
Y43251D01*
X270599Y43685D01*
X270860Y43945D01*
X271081Y44276D01*
X271158Y44666D01*
X271081Y45056D01*
X270860Y45387D01*
X270599Y45647D01*
X270420Y46081D01*
Y46551D01*
X270599Y46985D01*
X270910Y47295D01*
X271131Y47626D01*
X271208Y48016D01*
X271131Y48406D01*
X270910Y48737D01*
X270599Y49047D01*
X270420Y49481D01*
Y49951D01*
X270599Y50385D01*
X270852Y50637D01*
X270925Y50747D01*
X271073Y50968D01*
X271150Y51358D01*
Y51358D01*
D01*
X271135Y51436D01*
X271073Y51748D01*
X270852Y52079D01*
X270599Y52331D01*
X270420Y52765D01*
Y53235D01*
X270599Y53669D01*
X270918Y53987D01*
Y53987D01*
X270918D01*
X270991Y54097D01*
X271139Y54318D01*
X271216Y54708D01*
Y54708D01*
D01*
X271139Y55098D01*
X270991Y55319D01*
X270918Y55429D01*
X270918D01*
Y55429D01*
X270599Y55747D01*
X270420Y56181D01*
Y56651D01*
X270599Y57085D01*
X270860Y57345D01*
X271081Y57676D01*
X271158Y58066D01*
X271081Y58456D01*
X270860Y58787D01*
X270599Y59047D01*
X270420Y59481D01*
Y59951D01*
X270599Y60385D01*
X270902Y60687D01*
X270975Y60797D01*
X271123Y61018D01*
X271200Y61408D01*
Y61408D01*
D01*
X271123Y61798D01*
X270975Y62019D01*
X270902Y62129D01*
X270599Y62431D01*
X270420Y62865D01*
Y63335D01*
X270599Y63769D01*
X270868Y64037D01*
Y64037D01*
X270868D01*
X271089Y64368D01*
X271151Y64680D01*
X271166Y64758D01*
Y64758D01*
D01*
X271089Y65148D01*
X270941Y65369D01*
X270868Y65479D01*
X270868D01*
Y65479D01*
X270599Y65747D01*
X270420Y66181D01*
Y66651D01*
X270599Y67085D01*
X270887Y67373D01*
X271109Y67704D01*
X271186Y68094D01*
X271109Y68484D01*
X270887Y68815D01*
X270599Y69103D01*
X270420Y69537D01*
Y70006D01*
X270599Y70440D01*
X270882Y70723D01*
X271103Y71054D01*
X271181Y71444D01*
X271103Y71834D01*
X270882Y72165D01*
X270599Y72447D01*
X270420Y72881D01*
Y73351D01*
X270599Y73785D01*
X270931Y74117D01*
X271365Y74296D01*
X271835D01*
X272269Y74117D01*
D02*
G37*
G36*
X259069Y17601D02*
X259401Y17269D01*
X259580Y16835D01*
Y16365D01*
X259401Y15931D01*
X259069Y15599D01*
X258635Y15420D01*
X258165D01*
X257731Y15599D01*
X257399Y15931D01*
X257220Y16365D01*
Y16835D01*
X257399Y17269D01*
X257731Y17601D01*
X258165Y17780D01*
X258635D01*
X259069Y17601D01*
D02*
G37*
D53*
X6000Y59984D02*
D03*
Y94000D02*
D03*
Y6000D02*
D03*
Y40016D02*
D03*
D54*
X21748Y59984D02*
D03*
Y94000D02*
D03*
Y6000D02*
D03*
Y40016D02*
D03*
D59*
X258700Y89600D02*
X263276D01*
X263800D01*
D63*
X181793Y74093D02*
X184800Y77100D01*
X193700Y86000D01*
X249060D01*
X254940D02*
X262997D01*
X249060D02*
X250260Y84800D01*
X253740D02*
X254940Y86000D01*
X250260Y84800D02*
X253740D01*
X142500Y74093D02*
X181793D01*
X142500Y50000D02*
Y74093D01*
X90086Y83054D02*
X119243D01*
X128160Y74138D01*
X266000Y20400D02*
X274500Y11900D01*
Y5500D02*
Y11900D01*
X266000Y20400D02*
Y76875D01*
X259936Y82939D02*
X266000Y76875D01*
X264316Y89964D02*
Y94315D01*
X264500Y94500D01*
X263276Y88924D02*
X264316Y89964D01*
X142500Y74093D02*
X142545Y74138D01*
X128160D02*
X142545D01*
X259936Y82939D02*
X263800Y86804D01*
Y89600D01*
X81457Y49000D02*
X83800Y51343D01*
X78200Y49000D02*
X81457D01*
X83800Y76768D02*
X90086Y83054D01*
X83800Y51343D02*
Y76768D01*
X137500Y37692D02*
Y50000D01*
X52500Y14700D02*
X57800D01*
X62538D01*
D67*
X142500Y50000D02*
D03*
X35500Y45000D02*
D03*
Y50000D02*
D03*
D68*
Y55000D02*
D03*
D69*
X137500Y50000D02*
D03*
D70*
X78541Y90000D02*
D03*
X271600Y26205D02*
D03*
X210500Y76500D02*
D03*
X252000Y89000D02*
D03*
X275335Y17974D02*
D03*
X47172Y67582D02*
D03*
X52051Y59060D02*
D03*
X46005Y71095D02*
D03*
X46248Y82459D02*
D03*
X63126Y52065D02*
D03*
X73000Y65900D02*
D03*
X78341Y60587D02*
D03*
X29936Y59230D02*
D03*
X28125Y61508D02*
D03*
X28587Y93193D02*
D03*
X37500Y81082D02*
D03*
X271600Y73116D02*
D03*
Y69772D02*
D03*
Y56416D02*
D03*
Y59716D02*
D03*
Y53000D02*
D03*
Y66416D02*
D03*
Y63100D02*
D03*
X170400Y64500D02*
D03*
X249400Y61000D02*
D03*
X260200Y56189D02*
D03*
X252700Y52900D02*
D03*
X246300D02*
D03*
X238300Y56200D02*
D03*
X192200Y51600D02*
D03*
X271600Y43016D02*
D03*
Y39616D02*
D03*
Y49716D02*
D03*
Y46316D02*
D03*
Y36316D02*
D03*
Y33000D02*
D03*
X260200Y49689D02*
D03*
X252700Y46400D02*
D03*
X260200Y43189D02*
D03*
X246200Y46500D02*
D03*
X238300Y49700D02*
D03*
X214700Y51400D02*
D03*
X238300Y43200D02*
D03*
X214700Y44700D02*
D03*
X192200Y44600D02*
D03*
X249441Y39606D02*
D03*
X170500Y19700D02*
D03*
X157000Y41300D02*
D03*
X166700Y12600D02*
D03*
X73000Y75000D02*
D03*
X70000Y90000D02*
D03*
X73000Y79000D02*
D03*
X94200Y59600D02*
D03*
X112700Y49000D02*
D03*
X107900D02*
D03*
X117500D02*
D03*
X94278Y54500D02*
D03*
X103100Y49000D02*
D03*
X48200Y84500D02*
D03*
X69000Y79000D02*
D03*
Y75000D02*
D03*
X126000Y41300D02*
D03*
X117500Y41000D02*
D03*
X112700D02*
D03*
Y33000D02*
D03*
X117500D02*
D03*
X103100Y41000D02*
D03*
X98300D02*
D03*
X107900D02*
D03*
X98300Y49000D02*
D03*
X47800Y33548D02*
D03*
X103100Y33000D02*
D03*
X98300D02*
D03*
X107900D02*
D03*
X73300Y27300D02*
D03*
X84090D02*
D03*
X57800Y29000D02*
D03*
X52500D02*
D03*
X46900Y25928D02*
D03*
X37600Y25300D02*
D03*
X31400Y43700D02*
D03*
X29200Y41200D02*
D03*
X46900Y15200D02*
D03*
X37500Y15900D02*
D03*
X29991Y10409D02*
D03*
X38410Y70102D02*
D03*
X272400Y81272D02*
D03*
X277015D02*
D03*
X271600Y29616D02*
D03*
X258400Y16600D02*
D03*
X95552Y77346D02*
D03*
X78341Y55100D02*
D03*
X145000Y86811D02*
D03*
X135000D02*
D03*
X215834Y22834D02*
D03*
X242790Y28209D02*
D03*
X256102Y67631D02*
D03*
X259481Y71188D02*
D03*
X252810D02*
D03*
X249500Y67631D02*
D03*
X246113Y71188D02*
D03*
X242803Y67631D02*
D03*
X239410Y71188D02*
D03*
X236100Y67631D02*
D03*
X229403D02*
D03*
X232714Y71188D02*
D03*
X226013D02*
D03*
X84000Y84000D02*
D03*
X190200Y71400D02*
D03*
X193900Y74700D02*
D03*
X78200Y49000D02*
D03*
X258700Y88900D02*
D03*
X263276Y88924D02*
D03*
X95552Y83054D02*
D03*
X184800Y77100D02*
D03*
X169996Y81800D02*
D03*
X89800Y70000D02*
D03*
X249486Y28209D02*
D03*
X229390D02*
D03*
X236087D02*
D03*
X256187D02*
D03*
X63126Y47012D02*
D03*
X60700Y64803D02*
D03*
X160700Y37500D02*
D03*
X225984Y31666D02*
D03*
X179800Y58800D02*
D03*
X181300Y37300D02*
D03*
X192700Y33800D02*
D03*
X193900Y68200D02*
D03*
X232700Y31666D02*
D03*
X196700Y33800D02*
D03*
X259497Y31666D02*
D03*
X190200Y64700D02*
D03*
X200100Y29400D02*
D03*
X193900Y61300D02*
D03*
X252797Y31666D02*
D03*
X239397D02*
D03*
X204100Y29400D02*
D03*
X246100Y31666D02*
D03*
X184700Y37300D02*
D03*
X190114Y58086D02*
D03*
X194800Y49700D02*
D03*
X46900Y22700D02*
D03*
X194800Y46500D02*
D03*
X46900Y18400D02*
D03*
X36000Y77000D02*
D03*
X47500Y77600D02*
D03*
X32100Y77000D02*
D03*
X47500Y74350D02*
D03*
X175650Y58800D02*
D03*
X171500D02*
D03*
X80799Y27300D02*
D03*
X76599D02*
D03*
X211500Y44700D02*
D03*
Y51400D02*
D03*
X52500Y14700D02*
D03*
X57800D02*
D03*
D71*
X122381D02*
X137500Y29819D01*
X62538Y14700D02*
X122381D01*
X137500Y29819D02*
Y37692D01*
D72*
X54500Y94500D02*
D03*
X264500Y5500D02*
D03*
X44500D02*
D03*
X184500D02*
D03*
X164500D02*
D03*
X154500D02*
D03*
X174500D02*
D03*
X54500D02*
D03*
X64500D02*
D03*
X74500D02*
D03*
X94500D02*
D03*
X104500D02*
D03*
X124500D02*
D03*
X134500D02*
D03*
X144500D02*
D03*
X114500D02*
D03*
X194500D02*
D03*
X204500D02*
D03*
X214500D02*
D03*
X224500D02*
D03*
X234500D02*
D03*
X244500D02*
D03*
X254500D02*
D03*
X84500D02*
D03*
X124500Y94500D02*
D03*
X134500D02*
D03*
X184500D02*
D03*
X164500D02*
D03*
X154500D02*
D03*
X174500D02*
D03*
X44500D02*
D03*
X74500D02*
D03*
X84500D02*
D03*
X94500D02*
D03*
X104500D02*
D03*
X144500D02*
D03*
X114500D02*
D03*
X194500D02*
D03*
X204500D02*
D03*
X214500D02*
D03*
X224500D02*
D03*
X244500D02*
D03*
X254500D02*
D03*
X64500D02*
D03*
X234500D02*
D03*
X264500D02*
D03*
D73*
X274500D02*
D03*
Y5500D02*
D03*
M02*
