M48
;Layer_Color=9474304
;FILE_FORMAT=2:5
INCH,LZ
;TYPE=PLATED
T01F00S00C0.01200
T03F00S00C0.02800
T04F00S00C0.04000
%
T01
X0029991Y0010409
X00375Y00159
X00376Y00253
X00469Y0025928
Y00227
Y00184
Y00152
X00525Y00147
X00578
Y0029
X00525
X00478Y0033548
X00292Y00412
X00314Y00437
X0029936Y005923
X0028125Y0061508
X003841Y0070102
X0046005Y0071095
X0047172Y0067582
X00475Y007435
Y00776
X0046248Y0082459
X00482Y00845
X00375Y0081082
X0036Y0077
X00321
X0028587Y0093193
X007Y009
X0078541
X0084Y0084
X0073Y0079
Y0075
X0069
Y0079
X0073Y00659
X0078341Y0060587
Y00551
X00782Y0049
X0063126Y0047012
Y0052065
X00607Y0064803
X0052051Y005906
X00898Y007
X008409Y00273
X0080799
X0076599
X00733
X00983Y0033
X01031
X01079
X01127
X01175
Y0041
X01127
X01079
X01031
X00983
Y0049
X01031
X01079
X01127
X01175
X0126Y00413
X0157
X01607Y00375
X01813Y00373
X01847
X01927Y00338
X01967
X02001Y00294
X02041
X0215834Y0022834
X022939Y0028209
X0236087
X024279
X0249486
X02461Y0031666
X0239397
X02327
X0225984
X02383Y00432
Y00497
Y00562
X02463Y00529
X02462Y00465
X0249441Y0039606
X02494Y0061
X02495Y0067631
X0242803
X02361
X0229403
X0232714Y0071188
X023941
X0246113
X0226013
X02105Y00765
X01939Y00747
Y00682
X01902Y00714
Y00647
X0190114Y0058086
X01939Y00613
X01922Y00516
X01948Y00497
Y00465
X01922Y00446
X02115Y00447
X02147
Y00514
X02115
X01798Y00588
X017565
X01715
X01704Y00645
X0169996Y00818
X01848Y00771
X0145Y0086811
X0135
X0095552Y0083054
Y0077346
X00942Y00596
X0094278Y00545
X01705Y00197
X01667Y00126
X02584Y00166
X0256187Y0028209
X0259497Y0031666
X0252797
X02527Y00464
Y00529
X02602Y0049689
Y0056189
X02716Y0056416
Y0059716
Y00631
Y0066416
Y0069772
Y0073116
X02724Y0081272
X0277015
X0263276Y0088924
X02587Y00889
X0252Y0089
X025281Y0071188
X0259481
X0256102Y0067631
X02602Y0043189
X02716Y0043016
Y0046316
Y0049716
Y0053
Y0039616
Y0036316
Y0033
Y0029616
Y0026205
X0275335Y0017974
T03
X00355Y0045
Y005
Y0055
X01375Y005
X01425
T04
X00445Y00055
X00545
X00645
X00745
X00845
Y00945
X00745
X00645
X00545
X00445
X00945
X01045
X01145
X01245
X01345
X01445
X01545
X01645
X01745
X01845
X01945
X02045
X02145
X02245
X02345
X02445
Y00055
X02345
X02245
X02145
X02045
X01945
X01845
X01745
X01645
X01545
X01445
X01345
X01245
X01145
X01045
X00945
X02545
X02645
X02745
Y00945
X02645
X02545
M30
